<svg width="64" height="64" viewBox="0 0 64 64" fill="none" xmlns="http://www.w3.org/2000/svg">
<g clip-path="url(#clip0_31_12602)">
<path d="M24.0533 55.9999H6.66667C2.992 55.9999 0 53.0106 0 49.3333V11.9999C0 8.32259 2.992 5.33325 6.66667 5.33325H38.6667C42.3413 5.33325 45.3333 8.32259 45.3333 11.9999V22.8266C45.3333 23.5626 44.736 24.1599 44 24.1599C43.264 24.1599 42.6667 23.5626 42.6667 22.8266V11.9999C42.6667 9.79459 40.872 7.99992 38.6667 7.99992H6.66667C4.46133 7.99992 2.66667 9.79459 2.66667 11.9999V49.3333C2.66667 51.5386 4.46133 53.3333 6.66667 53.3333H24.0533C24.7893 53.3333 25.3867 53.9306 25.3867 54.6666C25.3867 55.4026 24.7893 55.9999 24.0533 55.9999Z" fill="#EF632F"/>
<path d="M9.33333 13.3333C8.59733 13.3333 8 12.736 8 12V1.33333C8 0.597333 8.59733 0 9.33333 0C10.0693 0 10.6667 0.597333 10.6667 1.33333V12C10.6667 12.736 10.0693 13.3333 9.33333 13.3333Z" fill="#EF632F"/>
<path d="M22.6673 13.3333C21.9313 13.3333 21.334 12.736 21.334 12V1.33333C21.334 0.597333 21.9313 0 22.6673 0C23.4033 0 24.0007 0.597333 24.0007 1.33333V12C24.0007 12.736 23.4033 13.3333 22.6673 13.3333Z" fill="#EF632F"/>
<path d="M35.9993 13.3333C35.2633 13.3333 34.666 12.736 34.666 12V1.33333C34.666 0.597333 35.2633 0 35.9993 0C36.7353 0 37.3327 0.597333 37.3327 1.33333V12C37.3327 12.736 36.7353 13.3333 35.9993 13.3333Z" fill="#EF632F"/>
<path d="M26.72 34.6667H9.33333C8.59733 34.6667 8 34.0693 8 33.3333C8 32.5973 8.59733 32 9.33333 32H26.72C27.456 32 28.0533 32.5973 28.0533 33.3333C28.0533 34.0693 27.456 34.6667 26.72 34.6667Z" fill="#EF632F"/>
<path d="M22.6667 23.9999H9.33333C8.59733 23.9999 8 23.4026 8 22.6666C8 21.9306 8.59733 21.3333 9.33333 21.3333H22.6667C23.4027 21.3333 24 21.9306 24 22.6666C24 23.4026 23.4027 23.9999 22.6667 23.9999Z" fill="#EF632F"/>
<path d="M46.6673 63.9999C37.11 63.9999 29.334 56.2239 29.334 46.6666C29.334 37.1093 37.11 29.3333 46.6673 29.3333C56.2247 29.3333 64.0007 37.1093 64.0007 46.6666C64.0007 56.2239 56.2247 63.9999 46.6673 63.9999ZM46.6673 31.9999C38.5793 31.9999 32.0007 38.5813 32.0007 46.6666C32.0007 54.7519 38.5793 61.3333 46.6673 61.3333C54.7553 61.3333 61.334 54.7519 61.334 46.6666C61.334 38.5813 54.7553 31.9999 46.6673 31.9999Z" fill="#EF632F"/>
<path d="M46.6673 55.9999C45.9313 55.9999 45.334 55.4026 45.334 54.6666V38.6666C45.334 37.9306 45.9313 37.3333 46.6673 37.3333C47.4033 37.3333 48.0007 37.9306 48.0007 38.6666V54.6666C48.0007 55.4026 47.4033 55.9999 46.6673 55.9999Z" fill="#EF632F"/>
<path d="M54.6673 47.9999H38.6673C37.9313 47.9999 37.334 47.4026 37.334 46.6666C37.334 45.9306 37.9313 45.3333 38.6673 45.3333H54.6673C55.4033 45.3333 56.0007 45.9306 56.0007 46.6666C56.0007 47.4026 55.4033 47.9999 54.6673 47.9999Z" fill="#EF632F"/>
</g>
<defs>
<clipPath id="clip0_31_12602">
<rect width="64" height="64" fill="white"/>
</clipPath>
</defs>
</svg>
