<svg width="240" height="240" viewBox="0 0 240 240" fill="none" xmlns="http://www.w3.org/2000/svg">
<g clip-path="url(#clip0_441_35385)">
<path d="M119.995 0C111.725 0 104.995 6.72984 104.995 15C104.995 23.2702 111.725 30 119.995 30C128.265 30 134.995 23.2702 134.995 15C134.995 6.72984 128.265 0 119.995 0ZM119.995 20.0002C117.235 20.0002 114.995 17.76 114.995 15C114.995 12.24 117.235 9.99984 119.995 9.99984C122.755 9.99984 124.995 12.24 124.995 15C124.995 17.76 122.755 20.0002 119.995 20.0002Z" fill="#5E6783"/>
<path d="M119.995 20C117.235 20 114.995 22.2402 114.995 25.0002C114.995 35.0103 96.1346 38.1303 77.9049 41.1402C57.345 44.54 36.1149 48.0402 35.0447 63.74L5.52518 122.77C4.74518 124.31 4.83518 126.16 5.74503 127.63C6.65487 129.1 8.26503 130 9.99518 130H69.9952C71.7253 130 73.335 129.09 74.2453 127.62C75.1552 126.15 75.2452 124.31 74.4652 122.76L45.0849 63.9997C46.4949 56.4598 64.005 53.5597 79.5249 51.0097C92.2547 48.8998 105.995 46.6395 114.995 41.2095V205C114.995 207.76 117.235 210 119.995 210C122.755 210 124.995 207.76 124.995 205V24.9997C124.995 22.2397 122.755 20 119.995 20ZM61.905 120H18.0849L39.9947 76.1797L61.905 120Z" fill="#5E6783"/>
<path d="M149.995 140C147.235 140 144.995 142.24 144.995 145C144.995 158.78 133.775 170 119.995 170C106.215 170 94.9954 158.78 94.9954 145C94.9954 142.24 92.7553 140 89.9953 140C87.2353 140 84.9951 142.24 84.9951 145C84.9951 164.3 100.695 180 119.995 180C139.296 180 154.995 164.3 154.995 145C154.995 142.24 152.755 140 149.995 140Z" fill="#5E6783"/>
<path d="M119.995 200C89.155 200 64.9951 215.38 64.9951 235C64.9951 237.76 67.2353 240 69.9953 240H169.995C172.755 240 174.995 237.76 174.995 235C174.995 215.38 150.835 200 119.995 200ZM75.9451 230C80.245 218.75 98.6851 210 120.005 210C141.325 210 159.755 218.75 164.055 230H75.9451Z" fill="#5E6783"/>
<path d="M69.9957 120C67.2357 120 64.9956 122.24 64.9956 125C64.9956 138.78 53.7756 150 39.9957 150C26.2159 150 14.9954 138.78 14.9954 125C14.9954 122.24 12.7553 120 9.99527 120C7.23527 120 4.99512 122.24 4.99512 125C4.99512 144.3 20.695 160 39.9953 160C59.2951 160 74.9954 144.3 74.9954 125C74.9954 122.24 72.7557 120 69.9957 120Z" fill="#5E6783"/>
<path d="M234.476 122.77L204.956 63.7395C203.876 48.0294 182.646 44.5297 162.096 41.1397C143.856 38.1298 124.995 35.0098 124.995 24.9997C124.995 22.2397 122.755 19.9995 119.995 19.9995C117.235 19.9995 114.995 22.2397 114.995 24.9997C114.995 43.4998 139.155 47.4898 160.465 50.9998C175.985 53.5597 193.495 56.45 194.905 63.9997L165.525 122.77C164.745 124.31 164.835 126.16 165.745 127.63C166.655 129.1 168.265 130 169.995 130H229.995C231.726 130 233.346 129.1 234.255 127.63C235.166 126.16 235.256 124.32 234.476 122.77ZM178.086 120L199.996 76.1797L221.906 120H178.086Z" fill="#5E6783"/>
<path d="M229.995 120C227.235 120 224.995 122.24 224.995 125C224.995 138.78 213.775 150 199.995 150C186.215 150 174.995 138.78 174.995 125C174.995 122.24 172.755 120 169.995 120C167.235 120 164.995 122.24 164.995 125C164.995 144.3 180.695 160 199.995 160C219.296 160 234.995 144.3 234.995 125C234.995 122.24 232.755 120 229.995 120Z" fill="#5E6783"/>
</g>
<defs>
<clipPath id="clip0_441_35385">
<rect width="240" height="240" fill="white"/>
</clipPath>
</defs>
</svg>
