<svg width="1016" height="1065" viewBox="0 0 1016 1065" fill="none" xmlns="http://www.w3.org/2000/svg">
<path d="M961.109 378.342C949.146 271.443 896.278 169.911 806.609 101.692C804.48 100.098 802.402 98.5039 800.223 96.91C717.6 35.8631 616.831 0 508.053 0C399.275 0 298.505 35.8631 215.883 96.9631C304.183 32.5158 409.818 12.5919 508.103 33.2065C598.735 52.121 683.132 105.464 741.728 190.048C742.387 191.004 742.995 191.907 743.654 192.864C792.214 264.165 815.277 346.676 814.466 428.231C813.858 496.238 796.725 563.661 764.183 623.38C738.737 669.975 703.863 711.948 660.068 745.792C617.692 778.946 565.078 798.604 508.103 798.604C451.129 798.604 398.565 778.946 356.139 745.739C357 746.536 357.862 747.227 358.825 747.917C404.8 782.93 455.742 805.617 508.103 816.509C570.805 829.579 635.484 825.86 695.905 806.148C770.772 781.868 839.101 733.2 889.131 662.218C889.79 661.368 890.398 660.412 891.057 659.508C949.653 574.978 972.007 474.508 961.21 378.342H961.109Z" fill="url(#paint0_linear_443_34925)"/>
<path d="M787.753 936.318C881.071 891.37 956.8 807.264 991.015 696.806C991.826 694.202 992.587 691.599 993.347 688.996C1023.25 587.782 1024.62 476.208 991.015 367.769C957.409 259.33 893.744 169.911 812.743 106.42C898.458 174.534 949.197 273.728 960.906 378.023C971.754 474.242 949.4 574.818 890.804 659.402C890.145 660.358 889.486 661.262 888.827 662.218C839.152 732.669 771.381 781.124 697.173 805.564C635.282 826.019 568.829 829.738 504.555 815.712C454.424 804.767 405.56 782.983 361.309 749.777C318.072 717.739 283.958 671.356 266.369 614.56C248.78 557.763 250.351 499.267 267.383 446.721H267.332C266.927 447.783 266.572 448.846 266.217 450.015C248.679 506.705 243.863 564.458 250.098 620.032C257.6 686.552 280.967 749.883 317.514 804.076C362.678 871.18 427.965 924.31 507.85 952.204C508.864 952.576 509.878 952.948 510.892 953.267C605.68 985.57 703.813 976.803 787.703 936.318H787.753Z" fill="url(#paint1_linear_443_34925)"/>
<path d="M55.0989 377.811C4.86632 471.692 -9.27583 586.348 24.9391 696.806C25.7501 699.409 26.5611 701.959 27.4228 704.563C60.0157 804.873 121.45 895.992 209.446 962.989C297.442 1029.99 399.073 1063.09 500.197 1064.57C392.635 1062.29 295.972 1013.3 228.049 936.105C165.296 864.964 126.975 769.807 126.975 665.299C126.975 664.131 126.975 663.015 126.975 661.793C127.685 574.181 155.31 493.263 201.64 427.753C240.265 373.082 291.917 329.09 351.78 300.878C398.464 278.829 450.218 266.396 504.657 265.971C557.576 265.28 611.154 281.804 657.281 316.923C703.357 351.989 734.886 400.338 750.548 453.309H750.599C750.295 452.193 749.991 451.077 749.636 449.962C732.098 393.272 703.56 343.595 667.368 302.525C623.979 253.326 569.59 216.507 509.625 195.148C435.467 168.689 352.895 165.926 272.604 192.545C271.59 192.863 270.577 193.182 269.512 193.554C174.724 225.804 100.263 293.386 55.0482 377.811H55.0989Z" fill="url(#paint2_linear_443_34925)"/>
<path d="M227.997 936.371C297.644 1015.48 397.348 1065 508.103 1065C510.689 1065 513.324 1065 515.909 1064.95C617.033 1063.46 718.664 1030.36 806.66 963.362C894.656 896.364 956.09 805.245 988.683 704.935C953.353 811.461 879.044 892.698 788.007 936.531C704.066 977.069 605.882 985.889 511.043 953.585C509.979 953.214 508.965 952.842 507.901 952.47C428.623 924.682 363.742 872.136 318.629 805.723C280.967 750.308 257.042 685.223 249.895 616.845C244.319 563.502 249.033 508.033 265.456 453.681H265.507C281.17 400.763 312.698 352.361 358.825 317.295C404.901 282.176 458.479 265.705 511.398 266.449C510.283 266.343 509.168 266.29 508.053 266.29C451.231 266.29 397.298 279.36 348.839 302.737C290.75 330.79 240.568 373.666 202.704 426.797C155.766 492.572 127.735 574.021 127.076 662.324C127.076 663.44 127.076 664.556 127.076 665.671C127.076 770.179 165.346 865.229 227.997 936.371Z" fill="url(#paint3_linear_443_34925)"/>
<path d="M508.257 33.1534C407.539 12.0606 299.116 33.4191 209.498 101.692C207.42 103.286 205.291 104.933 203.212 106.58C122.262 170.071 58.5974 259.436 24.9401 367.875C-8.61585 476.368 -7.24726 587.888 22.6591 689.155C-8.51448 581.194 6.08388 469.726 55.1506 378.129C100.314 293.599 174.776 226.017 269.665 193.714C270.73 193.395 271.744 193.023 272.859 192.651C352.541 166.245 434.556 168.795 508.257 194.776C569.793 216.4 625.652 254.282 669.802 305.234C704.22 344.976 731.541 392.74 748.725 446.827H748.674C765.705 499.373 767.277 557.923 749.688 614.719C732.099 671.516 697.985 717.846 654.748 749.883C655.66 749.299 656.573 748.661 657.485 747.971C703.46 712.958 739.753 669.178 765.857 620.351C797.082 561.908 813.708 496.292 814.519 429.932C815.583 347.792 792.621 264.643 743.605 192.81C742.997 191.907 742.388 190.951 741.73 190.048C683.184 105.517 598.889 52.1741 508.308 33.2065L508.257 33.1534Z" fill="#FFE12D"/>
<defs>
<linearGradient id="paint0_linear_443_34925" x1="801.923" y1="584.286" x2="659.964" y2="925.419" gradientUnits="userSpaceOnUse">
<stop stop-color="#EF6430"/>
<stop offset="1" stop-color="#EF632F" stop-opacity="0"/>
</linearGradient>
<linearGradient id="paint1_linear_443_34925" x1="744.155" y1="241.813" x2="214.203" y2="483.18" gradientUnits="userSpaceOnUse">
<stop stop-color="#FFE12D"/>
<stop offset="1" stop-color="#EF632F" stop-opacity="0"/>
</linearGradient>
<linearGradient id="paint2_linear_443_34925" x1="81.9024" y1="620.164" x2="21.6605" y2="1006.91" gradientUnits="userSpaceOnUse">
<stop stop-color="#1389C1"/>
<stop offset="1" stop-color="#85F0FF" stop-opacity="0"/>
</linearGradient>
<linearGradient id="paint3_linear_443_34925" x1="442.525" y1="497.156" x2="752.668" y2="987.809" gradientUnits="userSpaceOnUse">
<stop stop-color="#045591"/>
<stop offset="1" stop-color="#116BAD" stop-opacity="0"/>
</linearGradient>
</defs>
</svg>
