<svg width="1410" height="1410" viewBox="0 0 1410 1410" fill="none" xmlns="http://www.w3.org/2000/svg">
<path d="M392.298 1069.82C456.31 1151.24 552.815 1206.72 664.236 1215.47C666.869 1215.66 669.457 1215.87 672.133 1216.03C773.889 1222.6 878.599 1198.95 972.175 1141.65C1065.75 1084.35 1134.42 1001.83 1174.79 908.165C1131.21 1007.57 1050.35 1079.57 955.444 1114.43C867.972 1146.65 768.562 1147.33 675.648 1108.78C674.6 1108.34 673.623 1107.92 672.576 1107.48C594.97 1074.55 533.664 1018.98 493.376 951.626C459.723 895.494 440.578 831.137 438.561 764.985C437.035 713.341 445.942 660.523 466.608 609.678C486.401 560.147 521.784 516.297 570.796 486.284C619.808 456.271 674.906 444.714 728.091 449.617C726.949 449.416 725.861 449.303 724.685 449.244C667.54 444.728 612.316 452.946 561.798 471.59C501.29 493.894 447.519 531.018 405.448 579.024C353.245 638.389 318.923 714.323 311.557 798.931C311.417 799.976 311.374 801.081 311.261 802.17C303.334 902.409 334.595 996.638 392.211 1069.87L392.298 1069.82Z" fill="url(#paint0_linear_1_14)"/>
<path d="M261.018 520.581C203.33 606.628 180.451 715.543 206.528 824.217C207.138 826.781 207.793 829.318 208.447 831.855C233.584 930.673 288.478 1022.96 371.884 1094.25C455.29 1165.54 554.995 1205.38 656.583 1214.82C548.617 1204.07 455.118 1149.4 392.632 1069.97C334.946 996.722 303.632 902.407 311.532 802.124C311.618 800.992 311.731 799.903 311.818 798.771C319.146 714.786 353.095 639.32 404.651 580.171C447.613 530.781 502.91 492.722 565.25 470.375C613.876 452.949 666.859 445.086 721.614 449.027C774.909 452.542 827.565 472.637 871.239 509.983C914.913 547.328 942.958 596.163 954.714 648.258L954.757 648.231C954.572 647.145 954.343 646.086 954.061 644.94C940.659 589.177 915.778 539.244 882.486 496.92C842.603 446.282 790.674 406.617 732.001 381.394C659.426 350.115 576.562 340.905 493.822 360.096C492.763 360.325 491.704 360.553 490.672 360.826C392.897 384.248 312.883 443.138 261.062 520.555L261.018 520.581Z" fill="url(#paint1_linear_1_14)"/>
<path d="M1171.96 592.983C1167.99 489.476 1122.54 387.931 1037.6 315.305C1035.59 313.596 1033.61 311.93 1031.56 310.247C953.113 245.095 854.472 202.679 745.105 194.05C635.737 185.422 531.674 211.795 443.934 263.845C537.612 209.058 645.385 198.339 742.612 225.913C832.347 251.24 913.133 309.146 965.653 394.912C966.24 395.872 966.801 396.787 967.415 397.79C1010.83 470.065 1027.73 551.024 1020.8 629.192C1015.05 694.406 992.723 757.719 955.403 812.407C926.324 855.094 888.051 892.56 841.432 921.587C796.256 950.031 741.861 964.694 684.532 960.171C627.272 955.666 575.852 932.596 535.758 897.375L535.714 897.402C536.537 898.157 537.359 898.913 538.225 899.641C581.802 936.927 631.316 962.662 683.09 977.302C745.141 994.821 810.432 996.386 872.751 982.326C949.842 964.975 1022.26 923.745 1077.96 859.604C1078.67 858.808 1079.38 858.013 1080.11 857.147C1145.44 780.747 1175.54 686.059 1172.01 592.957L1171.96 592.983Z" fill="url(#paint2_linear_1_14)"/>
<path d="M742.523 225.667C642.853 197.431 532.197 209.316 436.92 267.66C434.696 269.022 432.428 270.41 430.231 271.816C343.987 326.307 273.193 407.009 231.164 508.347C189.134 609.685 182.077 716.826 204.449 816.317C181.307 710.283 204.407 604.469 260.694 520.54C312.532 443.053 392.563 384.093 490.382 360.644C491.484 360.388 492.543 360.159 493.646 359.904C575.809 340.946 658.03 349.891 730.214 380.629C790.461 406.268 843.751 447.078 884.263 499.429C915.867 540.269 939.687 588.274 952.874 641.531L952.83 641.557C965.95 693.237 963.151 749.567 941.093 802.644C919.105 855.738 881.292 897.478 835.394 924.745C836.407 924.245 837.393 923.701 838.352 923.113C887.234 893.18 927.061 854.043 956.999 809.331C992.873 755.708 1014.49 694.086 1020.37 630.537C1027.69 551.83 1010.87 470.221 967.063 397.406C966.502 396.491 965.941 395.575 965.38 394.659C912.861 308.893 832.171 251.048 742.523 225.667Z" fill="url(#paint3_linear_1_14)"/>
<path d="M955.338 1114.55C1052.58 1078.8 1135.12 1004.16 1177.9 900.921C1178.89 898.518 1179.89 896.045 1180.85 893.598C1218.58 798.85 1228.44 691.973 1202.9 585.249C1177.24 478.536 1120.02 387.735 1043.4 320.382C1124.48 392.561 1167.94 491.73 1171.76 592.748C1175.39 685.912 1145.29 780.6 1079.9 857.096C1079.14 857.919 1078.46 858.758 1077.69 859.651C1022.41 923.297 950.573 964.408 874.115 981.91C810.311 996.58 743.221 994.917 679.635 976.36C630.055 961.875 582.548 937.069 540.585 901.733L540.629 901.707C499.57 867.555 468.795 820.333 455.383 764.456C441.971 708.579 448.034 652.587 469.129 603.518C468.638 604.478 468.173 605.482 467.736 606.53C445.781 659.482 436.561 714.53 438.643 768.352C441.152 832.764 459.825 895.371 492.476 950.258C532.84 1018.23 594.379 1074.37 672.644 1107.5C673.621 1107.92 674.625 1108.39 675.646 1108.78C768.49 1147.31 867.813 1146.68 955.268 1114.53L955.338 1114.55Z" fill="#FFE12D"/>
<defs>
<linearGradient id="paint0_linear_1_14" x1="425.742" y1="816.948" x2="364.637" y2="464.251" gradientUnits="userSpaceOnUse">
<stop stop-color="#EF6430"/>
<stop offset="1" stop-color="#EF632F" stop-opacity="0"/>
</linearGradient>
<linearGradient id="paint1_linear_1_14" x1="647.545" y1="1067.58" x2="964.773" y2="579.046" gradientUnits="userSpaceOnUse">
<stop stop-color="#FFE12D"/>
<stop offset="1" stop-color="#EF632F" stop-opacity="0"/>
</linearGradient>
<linearGradient id="paint2_linear_1_14" x1="1027.11" y1="408.21" x2="879.603" y2="61.1983" gradientUnits="userSpaceOnUse">
<stop stop-color="#1389C1"/>
<stop offset="1" stop-color="#85F0FF" stop-opacity="0"/>
</linearGradient>
<linearGradient id="paint3_linear_1_14" x1="778.701" y1="699.129" x2="276.419" y2="438.464" gradientUnits="userSpaceOnUse">
<stop stop-color="#045591"/>
<stop offset="1" stop-color="#116BAD" stop-opacity="0"/>
</linearGradient>
</defs>
</svg>
