<svg width="48" height="48" viewBox="0 0 48 48" fill="none">
<g clip-path="url(#clip0_608_12316)">
<path d="M13 40.0001C12.752 40.0001 12.51 39.9061 12.324 39.7381C12.118 39.5481 12 39.2821 12 39.0001V11.0001C12 10.7201 12.118 10.4521 12.324 10.2621C12.532 10.0721 12.804 9.97605 13.088 10.0041L47.088 13.0041C47.604 13.0501 48 13.4821 48 14.0001V36.0001C48 36.5181 47.604 36.9521 47.088 36.9961L13.088 39.9961C13.058 39.9981 13.03 40.0001 13 40.0001ZM14 12.0921V37.9081L46 35.0841V14.9161L14 12.0921Z" fill="#88D2F2"/>
<path d="M13 40C12.92 40 12.84 39.99 12.758 39.97L0.758 36.97C0.312 36.86 0 36.458 0 36V14C0 13.542 0.312 13.142 0.758 13.03L12.758 10.03C13.286 9.89195 13.836 10.222 13.97 10.758C14.104 11.292 13.78 11.836 13.242 11.97L2 14.782V35.22L13.242 38.0299C13.78 38.1639 14.104 38.708 13.97 39.242C13.858 39.698 13.45 40 13 40Z" fill="#88D2F2"/>
<path d="M7 38.5C6.448 38.5 6 38.052 6 37.5V12.5C6 11.948 6.448 11.5 7 11.5C7.552 11.5 8 11.948 8 12.5V37.5C8 38.052 7.552 38.5 7 38.5Z" fill="#88D2F2"/>
<path d="M19 36C18.448 36 18 35.552 18 35V15C18 14.448 18.448 14 19 14C19.552 14 20 14.448 20 15V35C20 35.552 19.552 36 19 36Z" fill="#88D2F2"/>
<path d="M27 35C26.448 35 26 34.552 26 34V16C26 15.448 26.448 15 27 15C27.552 15 28 15.448 28 16V34C28 34.552 27.552 35 27 35Z" fill="#88D2F2"/>
<path d="M35 34C34.448 34 34 33.552 34 33V17C34 16.448 34.448 16 35 16C35.552 16 36 16.448 36 17V33C36 33.552 35.552 34 35 34Z" fill="#88D2F2"/>
<path d="M43 33C42.448 33 42 32.552 42 32V18C42 17.448 42.448 17 43 17C43.552 17 44 17.448 44 18V32C44 32.552 43.552 33 43 33Z" fill="#88D2F2"/>
</g>
<defs>
<clipPath id="clip0_608_12316">
<rect width="48" height="48" fill="white"/>
</clipPath>
</defs>
</svg>
