<svg width="240" height="240" viewBox="0 0 240 240" fill="none" xmlns="http://www.w3.org/2000/svg">
<g clip-path="url(#clip0_468_21720)">
<path d="M225 200H15C6.73 200 0 193.27 0 185V55C0 46.73 6.73 40 15 40H45C47.76 40 50 42.24 50 45C50 47.76 47.76 50 45 50H15C12.24 50 10 52.25 10 55V185C10 187.75 12.24 190 15 190H225C227.76 190 230 187.75 230 185V55C230 52.25 227.76 50 225 50H195C192.24 50 190 47.76 190 45C190 42.24 192.24 40 195 40H225C233.27 40 240 46.73 240 55V185C240 193.27 233.27 200 225 200Z" fill="#5E6783"/>
<path d="M165 240H75C72.24 240 70 237.76 70 235C70 232.24 72.24 230 75 230H165C167.76 230 170 232.24 170 235C170 237.76 167.76 240 165 240Z" fill="#5E6783"/>
<path d="M105 240C102.24 240 100 237.76 100 235V195C100 192.24 102.24 190 105 190C107.76 190 110 192.24 110 195V235C110 237.76 107.76 240 105 240Z" fill="#5E6783"/>
<path d="M135 240C132.24 240 130 237.76 130 235V195C130 192.24 132.24 190 135 190C137.76 190 140 192.24 140 195V235C140 237.76 137.76 240 135 240Z" fill="#5E6783"/>
<path d="M119.97 120C119.25 120 118.53 119.84 117.87 119.53L62.9 93.99C61.13 93.17 60 91.41 60 89.46V30.54C60 28.83 60.87 27.24 62.31 26.32C63.75 25.41 65.57 25.29 67.1 26.01L122.07 51.55C123.84 52.37 124.97 54.14 124.97 56.08V115C124.97 116.71 124.1 118.3 122.66 119.22C121.84 119.74 120.9 120 119.97 120ZM70 86.27L114.97 107.17V59.27L70 38.37V86.27Z" fill="#5E6783"/>
<path d="M120.031 120C119.091 120 118.151 119.74 117.341 119.22C115.901 118.3 115.031 116.71 115.031 115V56.0701C115.031 54.1301 116.161 52.3601 117.931 51.5401L172.901 26.0001C174.451 25.2901 176.261 25.4001 177.691 26.3101C179.131 27.2401 180.001 28.8301 180.001 30.5401V89.4701C180.001 91.4101 178.871 93.1801 177.101 94.0001L122.131 119.54C121.471 119.84 120.751 120 120.031 120ZM125.031 59.2701V107.17L170.001 86.2701V38.3701L125.031 59.2701Z" fill="#5E6783"/>
<path d="M175 35.54C174.3 35.54 173.58 35.39 172.9 35.07L120.04 10.52L67.1 35.07C64.6 36.26 61.63 35.15 60.46 32.65C59.3 30.14 60.39 27.17 62.9 26.01L117.93 0.470005C119.27 -0.149995 120.81 -0.149995 122.14 0.470005L177.11 26.01C179.61 27.17 180.7 30.14 179.54 32.65C178.69 34.46 176.88 35.54 175 35.54Z" fill="#5E6783"/>
<path d="M150 70C147.24 70 145 67.76 145 65V45.4L93.45 20.81C90.96 19.62 89.9 16.64 91.09 14.15C92.27 11.65 95.26 10.58 97.76 11.79L151.82 37.57C153.66 38.32 155 40.11 155 42.2V65C155 67.76 152.76 70 150 70Z" fill="#5E6783"/>
</g>
<defs>
<clipPath id="clip0_468_21720">
<rect width="240" height="240" fill="white"/>
</clipPath>
</defs>
</svg>
