<svg width="48" height="48" viewBox="0 0 48 48" fill="none">
<g clip-path="url(#clip0_606_10508)">
<path d="M47 46H1C0.448 46 0 45.552 0 45C0 44.448 0.448 44 1 44H47C47.552 44 48 44.448 48 45C48 45.552 47.552 46 47 46Z" fill="#88D2F2"/>
<path d="M8 30C4.692 30 2 27.308 2 24C2 20.692 4.692 18 8 18C11.308 18 14 20.692 14 24C14 27.308 11.308 30 8 30ZM8 20C5.794 20 4 21.794 4 24C4 26.206 5.794 28 8 28C10.206 28 12 26.206 12 24C12 21.794 10.206 20 8 20Z" fill="#88D2F2"/>
<path d="M24 16C20.692 16 18 13.308 18 10C18 6.692 20.692 4 24 4C27.308 4 30 6.692 30 10C30 13.308 27.308 16 24 16ZM24 6C21.794 6 20 7.794 20 10C20 12.206 21.794 14 24 14C26.206 14 28 12.206 28 10C28 7.794 26.206 6 24 6Z" fill="#88D2F2"/>
<path d="M40 12C36.692 12 34 9.308 34 6C34 2.692 36.692 0 40 0C43.308 0 46 2.692 46 6C46 9.308 43.308 12 40 12ZM40 2C37.794 2 36 3.794 36 6C36 8.206 37.794 10 40 10C42.206 10 44 8.206 44 6C44 3.794 42.206 2 40 2Z" fill="#88D2F2"/>
<path d="M40 46C39.448 46 39 45.552 39 45V17C39 16.448 39.448 16 40 16C40.552 16 41 16.448 41 17V45C41 45.552 40.552 46 40 46Z" fill="#88D2F2"/>
<path d="M24 46C23.448 46 23 45.552 23 45V21C23 20.448 23.448 20 24 20C24.552 20 25 20.448 25 21V45C25 45.552 24.552 46 24 46Z" fill="#88D2F2"/>
<path d="M8 46C7.448 46 7 45.552 7 45V35C7 34.448 7.448 34 8 34C8.552 34 9 34.448 9 35V45C9 45.552 8.552 46 8 46Z" fill="#88D2F2"/>
<path d="M11.7596 21.7C11.4796 21.7 11.2036 21.584 11.0056 21.358C10.6416 20.942 10.6856 20.31 11.1016 19.946L19.5816 12.548C19.9956 12.186 20.6296 12.226 20.9936 12.644C21.3576 13.06 21.3136 13.692 20.8976 14.056L12.4176 21.454C12.2276 21.618 11.9936 21.7 11.7596 21.7Z" fill="#88D2F2"/>
<path d="M28.84 9.77993C28.39 9.77993 27.98 9.47593 27.87 9.01993C27.738 8.48193 28.066 7.94193 28.6 7.80993L34.92 6.25193C35.468 6.11193 36 6.44593 36.13 6.97993C36.262 7.51793 35.934 8.05793 35.4 8.18993L29.08 9.74793C28.998 9.76993 28.918 9.77993 28.84 9.77993Z" fill="#88D2F2"/>
</g>
<defs>
<clipPath id="clip0_606_10508">
<rect width="48" height="48" fill="white"/>
</clipPath>
</defs>
</svg>
