<svg width="48" height="48" viewBox="0 0 48 48" fill="none">
    <g clip-path="url(#clip0_608_12346)">
        <path d="M13 42H9C8.448 42 8 41.552 8 41C8 40.448 8.448 40 9 40H13C13.552 40 14 40.448 14 41C14 41.552 13.552 42 13 42Z" fill="#88D2F2"/>
        <path d="M23 42H21C20.448 42 20 41.552 20 41C20 40.448 20.448 40 21 40H22V9C22 8.45 21.552 8 21 8H1C0.448 8 0 7.552 0 7C0 6.448 0.448 6 1 6H21C22.654 6 24 7.346 24 9V41C24 41.552 23.552 42 23 42Z" fill="#88D2F2"/>
        <path d="M45 42H41C40.448 42 40 41.552 40 41C40 40.448 40.448 40 41 40H45C45.552 40 46 39.55 46 39V20H30V40H33C33.552 40 34 40.448 34 41C34 41.552 33.552 42 33 42H29C28.448 42 28 41.552 28 41V19C28 18.448 28.448 18 29 18H47C47.552 18 48 18.448 48 19V39C48 40.654 46.654 42 45 42Z" fill="#88D2F2"/>
        <path d="M15 32C14.448 32 14 31.552 14 31V13C14 12.448 14.448 12 15 12C15.552 12 16 12.448 16 13V31C16 31.552 15.552 32 15 32Z" fill="#88D2F2"/>
        <path d="M5 32C4.448 32 4 31.552 4 31V13C4 12.448 4.448 12 5 12C5.552 12 6 12.448 6 13V31C6 31.552 5.552 32 5 32Z" fill="#88D2F2"/>
        <path d="M37 46C34.244 46 32 43.758 32 41C32 38.242 34.244 36 37 36C39.756 36 42 38.242 42 41C42 43.758 39.756 46 37 46ZM37 38C35.346 38 34 39.346 34 41C34 42.654 35.346 44 37 44C38.654 44 40 42.654 40 41C40 39.346 38.654 38 37 38Z" fill="#88D2F2"/>
        <path d="M17 46C14.244 46 12 43.758 12 41C12 38.242 14.244 36 17 36C19.756 36 22 38.242 22 41C22 43.758 19.756 46 17 46ZM17 38C15.346 38 14 39.346 14 41C14 42.654 15.346 44 17 44C18.654 44 20 42.654 20 41C20 39.346 18.654 38 17 38Z" fill="#88D2F2"/>
        <path d="M5 46C2.244 46 0 43.758 0 41C0 38.242 2.244 36 5 36C7.756 36 10 38.242 10 41C10 43.758 7.756 46 5 46ZM5 38C3.346 38 2 39.346 2 41C2 42.654 3.346 44 5 44C6.654 44 8 42.654 8 41C8 39.346 6.654 38 5 38Z" fill="#88D2F2"/>
        <path d="M43 20C42.448 20 42 19.552 42 19C42 12.936 37.066 8 31 8H30V19C30 19.552 29.552 20 29 20C28.448 20 28 19.552 28 19V7C28 6.448 28.448 6 29 6H31C38.168 6 44 11.832 44 19C44 19.552 43.552 20 43 20Z" fill="#88D2F2"/>
        <path d="M47 32H35C34.448 32 34 31.552 34 31V25C34 24.448 34.448 24 35 24H47C47.552 24 48 24.448 48 25C48 25.552 47.552 26 47 26H36V30H47C47.552 30 48 30.448 48 31C48 31.552 47.552 32 47 32Z" fill="#88D2F2"/>
        <path d="M29 42H23C22.448 42 22 41.552 22 41C22 40.448 22.448 40 23 40H29C29.552 40 30 40.448 30 41C30 41.552 29.552 42 29 42Z" fill="#88D2F2"/>
    </g>
    <defs>
        <clipPath id="clip0_608_12346">
            <rect width="48" height="48" fill="white"/>
        </clipPath>
    </defs>
</svg>
