<svg width="240" height="240" viewBox="0 0 240 240" fill="none" xmlns="http://www.w3.org/2000/svg">
<g clip-path="url(#clip0_441_29723)">
<path d="M195.01 180C194.74 180 194.46 179.98 194.18 179.93C191.46 179.48 189.62 176.9 190.07 174.18L197.77 127.78C198.82 121.65 195.96 115.44 190.66 112.3L147.17 86.81C144.79 85.41 143.99 82.35 145.38 79.96C146.79 77.58 149.86 76.8 152.23 78.17L195.74 103.67C204.61 108.91 209.37 119.27 207.63 129.44L199.93 175.81C199.53 178.26 197.41 180 195.01 180Z" fill="#5E6783"/>
<path d="M44.9905 180C42.5905 180 40.4705 178.26 40.0705 175.82L32.3705 129.42C30.6305 119.27 35.4005 108.92 44.2505 103.69L88.1805 77.89C90.5105 76.49 93.6105 77.27 95.0205 79.67C96.4205 82.04 95.6205 85.11 93.2305 86.5L49.3205 112.3C44.0405 115.43 41.1805 121.65 42.2305 127.75L49.9305 174.18C50.3805 176.9 48.5405 179.48 45.8205 179.93C45.5405 179.98 45.2605 180 44.9905 180Z" fill="#5E6783"/>
<path d="M119.96 240C119.25 240 118.52 239.84 117.85 239.53L62.89 213.99C61.13 213.17 60 211.41 60 209.46V150.53C60 148.82 60.87 147.23 62.31 146.31C63.74 145.39 65.54 145.27 67.1 146L122.06 171.54C123.82 172.36 124.95 174.13 124.95 176.07V235C124.95 236.71 124.08 238.3 122.64 239.22C121.84 239.74 120.9 240 119.96 240ZM70 206.27L114.96 227.17V179.27L70 158.37V206.27Z" fill="#5E6783"/>
<path d="M120.04 240C119.1 240 118.16 239.74 117.35 239.22C115.9 238.3 115.04 236.71 115.04 235V176.07C115.04 174.13 116.17 172.36 117.93 171.54L172.89 146C174.44 145.28 176.25 145.39 177.68 146.31C179.13 147.24 180 148.83 180 150.54V209.47C180 211.41 178.87 213.18 177.11 214L122.15 239.54C121.47 239.84 120.75 240 120.04 240ZM125.04 179.27V227.17L170 206.27V158.37L125.04 179.27Z" fill="#5E6783"/>
<path d="M175 155.54C174.29 155.54 173.57 155.39 172.89 155.07L120.04 130.51L67.0996 155.07C64.6196 156.26 61.6196 155.15 60.4696 152.64C59.3096 150.14 60.3896 147.17 62.8996 146.01L117.94 120.47C119.27 119.85 120.8 119.85 122.15 120.47L177.11 146.01C179.61 147.17 180.69 150.14 179.53 152.65C178.69 154.46 176.88 155.54 175 155.54Z" fill="#5E6783"/>
<path d="M150 190C147.24 190 145 187.76 145 185V165.4L93.4497 140.81C90.9497 139.62 89.8997 136.64 91.0897 134.15C92.2797 131.66 95.2697 130.6 97.7497 131.79L151.82 157.57C153.67 158.32 155 160.11 155 162.2V185C155 187.76 152.76 190 150 190Z" fill="#5E6783"/>
<path d="M35.6904 80H25.6904C17.4204 80 10.6904 73.27 10.6904 65V45C10.6904 36.73 17.4204 30 25.6904 30H35.6904C43.9604 30 50.6904 36.73 50.6904 45V65C50.6904 73.27 43.9604 80 35.6904 80ZM25.6904 40C22.9404 40 20.6904 42.25 20.6904 45V65C20.6904 67.75 22.9404 70 25.6904 70H35.6904C38.4404 70 40.6904 67.75 40.6904 65V45C40.6904 42.25 38.4404 40 35.6904 40H25.6904Z" fill="#5E6783"/>
<path d="M55 10H5C2.24 10 0 7.76 0 5C0 2.24 2.24 0 5 0H55C57.76 0 60 2.24 60 5C60 7.76 57.76 10 55 10Z" fill="#5E6783"/>
<path d="M30 40C27.24 40 25 37.76 25 35V5C25 2.24 27.24 0 30 0C32.76 0 35 2.24 35 5V35C35 37.76 32.76 40 30 40Z" fill="#5E6783"/>
<path d="M215.69 80H205.69C197.42 80 190.69 73.27 190.69 65V45C190.69 36.73 197.42 30 205.69 30H215.69C223.96 30 230.69 36.73 230.69 45V65C230.69 73.27 223.96 80 215.69 80ZM205.69 40C202.94 40 200.69 42.25 200.69 45V65C200.69 67.75 202.94 70 205.69 70H215.69C218.44 70 220.69 67.75 220.69 65V45C220.69 42.25 218.44 40 215.69 40H205.69Z" fill="#5E6783"/>
<path d="M235 10H185C182.24 10 180 7.76 180 5C180 2.24 182.24 0 185 0H235C237.76 0 240 2.24 240 5C240 7.76 237.76 10 235 10Z" fill="#5E6783"/>
<path d="M210 40C207.24 40 205 37.76 205 35V5C205 2.24 207.24 0 210 0C212.76 0 215 2.24 215 5V35C215 37.76 212.76 40 210 40Z" fill="#5E6783"/>
<path d="M120.7 100C103.94 100 89.0002 91.37 81.0102 77.47C78.3602 72.86 73.4202 70 68.1202 70H45.7002C42.9402 70 40.7002 67.76 40.7002 65C40.7002 62.24 42.9402 60 45.7002 60H68.1102C76.9802 60 85.2402 64.79 89.6802 72.48C95.9002 83.29 107.51 90 120 90C133.18 90 144.79 83.29 151.02 72.49C155.44 64.79 163.71 60 172.59 60H190V50H172.59C163.71 50 155.44 45.21 151.02 37.51C144.79 26.71 133.18 20 120.7 20C107.51 20 95.9002 26.71 89.6802 37.51C85.2402 45.21 76.9802 50 68.1202 50H45.7002C42.9402 50 40.7002 47.76 40.7002 45C40.7002 42.24 42.9402 40 45.7002 40H68.1102C73.4102 40 78.3502 37.14 81.0102 32.52C89.0002 18.63 103.95 10 120 10C136.75 10 151.69 18.63 159.69 32.53C162.33 37.14 167.28 40 172.59 40H195C197.76 40 200 42.24 200 45V65C200 67.76 197.76 70 195 70H172.59C167.28 70 162.34 72.86 159.69 77.47C151.69 91.37 136.75 100 120.7 100Z" fill="#5E6783"/>
</g>
<defs>
<clipPath id="clip0_441_29723">
<rect width="240" height="240" fill="white"/>
</clipPath>
</defs>
</svg>
