<svg width="240" height="240" viewBox="0 0 240 240" fill="none" xmlns="http://www.w3.org/2000/svg">
<g clip-path="url(#clip0_441_35846)">
<path d="M35 220H5C2.24 220 0 217.76 0 215V125C0 122.24 2.24 120 5 120C39.01 120 56.98 131.46 57.73 131.95C59.52 133.12 60.37 135.3 59.85 137.37L39.85 216.23C39.28 218.45 37.29 220 35 220ZM10 210H31.11L49.2 138.7C43.57 136.01 30.31 130.84 10 130.09V210Z" fill="#5E6783"/>
<path d="M130.001 240C106.401 240 60.7707 220.16 35.6607 208.32C33.1607 207.15 32.1007 204.16 33.2707 201.67C34.4407 199.16 37.4307 198.11 39.9307 199.28C59.5307 208.52 107.531 230 130.001 230C154.321 230 211.651 201.43 228.141 192.94C225.541 189.54 220.171 185 210.001 185C200.771 185 189.071 188.69 177.751 192.27C165.721 196.06 153.271 200 142.501 200C121.861 200 94.4507 190.12 93.2907 189.7C90.7007 188.76 89.3607 185.89 90.3007 183.29C91.2507 180.7 94.1107 179.37 96.7107 180.3C96.9707 180.4 123.631 190 142.501 190C151.731 190 163.431 186.31 174.751 182.73C186.781 178.94 199.231 175 210.001 175C233.331 175 239.491 192.67 239.741 193.42C240.511 195.73 239.511 198.26 237.351 199.42C234.241 201.06 160.891 240 130.001 240Z" fill="#5E6783"/>
<path d="M164.999 195.9C162.239 195.9 159.999 193.66 159.999 190.9V185.9C159.999 178.92 155.299 172.94 148.559 171.38L52.0191 148.07C49.3291 147.42 47.6791 144.72 48.3291 142.03C48.9791 139.33 51.729 137.74 54.359 138.34L150.859 161.64C162.119 164.27 169.999 174.25 169.999 185.9V190.9C169.999 193.66 167.759 195.9 164.999 195.9Z" fill="#5E6783"/>
<path d="M145 120C142.24 120 140 117.76 140 115V45C140 42.24 142.24 40 145 40C147.76 40 150 42.24 150 45V115C150 117.76 147.76 120 145 120Z" fill="#5E6783"/>
<path d="M165 50H145C142.24 50 140 47.76 140 45V35C140 15.7 155.7 0 175 0H195C197.76 0 200 2.24 200 5V15C200 34.3 184.3 50 165 50ZM150 40H165C178.78 40 190 28.79 190 15V10H175C161.22 10 150 21.21 150 35V40Z" fill="#5E6783"/>
<path d="M145 90H125C100.19 90 80 69.81 80 45V35C80 32.24 82.24 30 85 30H105C129.81 30 150 50.19 150 75V85C150 87.76 147.76 90 145 90ZM90 40V45C90 64.3 105.7 80 125 80H140V75C140 55.7 124.3 40 105 40H90Z" fill="#5E6783"/>
</g>
<defs>
<clipPath id="clip0_441_35846">
<rect width="240" height="240" fill="white"/>
</clipPath>
</defs>
</svg>
