<svg width="64" height="64" viewBox="0 0 64 64" fill="none" xmlns="http://www.w3.org/2000/svg">
<g clip-path="url(#clip0_690_11478)">
<path d="M18.666 24C14.2553 24 10.666 20.4106 10.666 16V12C10.666 11.264 11.2633 10.6666 11.9993 10.6666H25.3327C26.0687 10.6666 26.666 11.264 26.666 12V16C26.666 20.4106 23.0767 24 18.666 24ZM13.3327 13.3333V16C13.3327 18.9413 15.7247 21.3333 18.666 21.3333C21.6073 21.3333 23.9993 18.9413 23.9993 16V13.3333H13.3327Z" fill="#EF632F"/>
<path d="M28 13.3333H9.33333C8.59733 13.3333 8 12.736 8 12C8 11.264 8.59733 10.6666 9.33333 10.6666H28C28.736 10.6666 29.3333 11.264 29.3333 12C29.3333 12.736 28.736 13.3333 28 13.3333Z" fill="#EF632F"/>
<path d="M25.3327 13.3333H11.9993C11.2633 13.3333 10.666 12.736 10.666 12V9.33329C10.666 5.65863 13.6553 2.66663 17.3327 2.66663H19.9993C23.6767 2.66663 26.666 5.65863 26.666 9.33329V12C26.666 12.736 26.0687 13.3333 25.3327 13.3333ZM13.3327 10.6666H23.9993V9.33329C23.9993 7.12796 22.2047 5.33329 19.9993 5.33329H17.3327C15.1273 5.33329 13.3327 7.12796 13.3327 9.33329V10.6666Z" fill="#EF632F"/>
<path d="M18.6673 8C17.9313 8 17.334 7.40267 17.334 6.66667V1.33333C17.334 0.597333 17.9313 0 18.6673 0C19.4033 0 20.0007 0.597333 20.0007 1.33333V6.66667C20.0007 7.40267 19.4033 8 18.6673 8Z" fill="#EF632F"/>
<path d="M28 64C27.264 64 26.6667 63.4027 26.6667 62.6667V30.6667C26.6667 29.9307 27.264 29.3334 28 29.3334H36C39.2187 29.3334 41.9147 27.04 42.5333 24H9.33333C5.656 24 2.66667 26.992 2.66667 30.6667V38.6667C2.66667 42.3414 5.656 45.3334 9.33333 45.3334C10.0693 45.3334 10.6667 45.9307 10.6667 46.6667C10.6667 47.4027 10.0693 48 9.33333 48C4.18667 48 0 43.8134 0 38.6667V30.6667C0 25.52 4.18667 21.3334 9.33333 21.3334H44C44.736 21.3334 45.3333 21.9307 45.3333 22.6667C45.3333 27.8134 41.1467 32 36 32H29.3333V62.6667C29.3333 63.4027 28.736 64 28 64Z" fill="#EF632F"/>
<path d="M9.33333 64C8.59733 64 8 63.4027 8 62.6667V33.3333C8 32.5973 8.59733 32 9.33333 32C10.0693 32 10.6667 32.5973 10.6667 33.3333V62.6667C10.6667 63.4027 10.0693 64 9.33333 64Z" fill="#EF632F"/>
<path d="M18.6673 64C17.9313 64 17.334 63.4027 17.334 62.6667V46.6667C17.334 45.9307 17.9313 45.3334 18.6673 45.3334C19.4033 45.3334 20.0007 45.9307 20.0007 46.6667V62.6667C20.0007 63.4027 19.4033 64 18.6673 64Z" fill="#EF632F"/>
<path d="M62.6667 50.6667H33.3333C32.5973 50.6667 32 50.0694 32 49.3334V36C32 35.264 32.5973 34.6667 33.3333 34.6667C34.0693 34.6667 34.6667 35.264 34.6667 36V48H61.3333V8.00004H34.6667V17.3334C34.6667 18.0694 34.0693 18.6667 33.3333 18.6667C32.5973 18.6667 32 18.0694 32 17.3334V6.66671C32 5.93071 32.5973 5.33337 33.3333 5.33337H62.6667C63.4027 5.33337 64 5.93071 64 6.66671V49.3334C64 50.0694 63.4027 50.6667 62.6667 50.6667Z" fill="#EF632F"/>
<path d="M61.3327 34.6667C57.6553 34.6667 54.666 31.6747 54.666 28C54.666 24.3254 57.6553 21.3334 61.3327 21.3334C61.8953 21.3334 62.4553 21.4027 62.9993 21.544C63.714 21.7254 64.1434 22.4534 63.9594 23.1654C63.7807 23.88 63.0634 24.3147 62.338 24.1254C59.8687 23.5014 57.3327 25.456 57.3327 28C57.3327 30.2054 59.1273 32 61.3327 32C61.674 32 62.01 31.9574 62.3327 31.8747C63.0553 31.6907 63.7727 32.1227 63.9567 32.832C64.138 33.5467 63.7113 34.272 62.9993 34.456C62.458 34.5974 61.898 34.6667 61.3327 34.6667Z" fill="#EF632F"/>
<path d="M62.67 45.3333H59.27C57.91 45.3333 56.7847 44.2986 56.654 42.9253L56.326 39.5306C55.55 39.176 54.8114 38.7333 54.1154 38.2106L51.126 39.6C49.87 40.176 48.4247 39.7013 47.7474 38.4933L45.6807 34.8106C45.0194 33.632 45.334 32.1386 46.414 31.336L49.0807 29.3626C49.03 28.9466 48.9927 28.4826 48.9927 27.9973C48.9927 27.512 49.0327 27.048 49.0807 26.632L46.414 24.6586C45.334 23.856 45.0194 22.3653 45.6834 21.184L47.7447 17.5013C48.4247 16.2933 49.8754 15.816 51.1234 16.3946L54.1154 17.784C54.8114 17.2613 55.55 16.8186 56.326 16.464L56.654 13.0666C56.7847 11.7013 57.91 10.6666 59.27 10.6666H62.6674C63.4034 10.6666 64.0007 11.264 64.0007 12C64.0007 12.736 63.4034 13.3333 62.6674 13.3333H59.27L58.902 17.52C58.8514 18.0266 58.518 18.4613 58.0434 18.64C57.0114 19.0266 56.046 19.6053 55.1767 20.3573C54.782 20.696 54.2167 20.7786 53.742 20.5573L50.0007 18.8186L48.0087 22.4933L51.3127 24.968C51.7154 25.2666 51.918 25.768 51.8327 26.264C51.734 26.8293 51.6594 27.4026 51.6594 27.9973C51.6594 28.592 51.734 29.1653 51.8327 29.7306C51.9154 30.2266 51.7154 30.728 51.3127 31.0266L48.0007 33.48L50.07 37.1893L53.7394 35.4426C54.2167 35.2213 54.7794 35.3013 55.174 35.6426C56.0434 36.3946 57.0087 36.9733 58.0407 37.36C58.518 37.5386 58.8514 37.9733 58.8994 38.48L59.3047 42.6693L62.67 42.6666C63.406 42.6666 64.0034 43.264 64.0034 44C64.0034 44.736 63.406 45.3333 62.67 45.3333Z" fill="#EF632F"/>
</g>
<defs>
<clipPath id="clip0_690_11478">
<rect width="64" height="64" fill="white"/>
</clipPath>
</defs>
</svg>
