<svg width="24" height="24" viewBox="0 0 24 24" fill="none" xmlns="http://www.w3.org/2000/svg">
<path d="M19.9205 5.51995H19.2005V2.63995C19.2005 1.84579 18.5544 1.19995 17.7605 1.19995H6.24047C5.44655 1.19995 4.80047 1.84579 4.80047 2.63995V5.51995H4.08047C2.09543 5.51995 0.480469 7.13491 0.480469 9.11995V16.32C0.480469 17.5111 1.44935 18.4799 2.64047 18.4799H4.80047V21.3599C4.80047 22.1541 5.44655 22.7999 6.24047 22.7999H17.7605C18.5544 22.7999 19.2005 22.1541 19.2005 21.3599V18.4799H21.3605C22.5516 18.4799 23.5205 17.5111 23.5205 16.32V9.11995C23.5205 7.13491 21.9055 5.51995 19.9205 5.51995ZM6.24047 2.63995H17.7605V5.51995H6.24047V2.63995ZM6.24047 21.3599V14.16H17.7605V21.3599H6.24047ZM22.0805 16.32C22.0805 16.7169 21.7577 17.0399 21.3605 17.0399H19.2005V14.16H19.9205C20.3184 14.16 20.6405 13.8376 20.6405 13.4399C20.6405 13.0423 20.3184 12.7199 19.9205 12.7199H4.08047C3.68255 12.7199 3.36047 13.0423 3.36047 13.4399C3.36047 13.8376 3.68255 14.16 4.08047 14.16H4.80047V17.0399H2.64047C2.24327 17.0399 1.92047 16.7169 1.92047 16.32V9.11995C1.92047 7.92883 2.88935 6.95995 4.08047 6.95995H19.9205C21.1116 6.95995 22.0805 7.92883 22.0805 9.11995V16.32ZM15.6005 16.32C15.6005 16.7176 15.2784 17.0399 14.8805 17.0399H9.12047C8.72255 17.0399 8.40047 16.7176 8.40047 16.32C8.40047 15.9223 8.72255 15.5999 9.12047 15.5999H14.8805C15.2784 15.5999 15.6005 15.9223 15.6005 16.32ZM15.6005 19.1999C15.6005 19.5976 15.2784 19.92 14.8805 19.92H9.12047C8.72255 19.92 8.40047 19.5976 8.40047 19.1999C8.40047 18.8023 8.72255 18.4799 9.12047 18.4799H14.8805C15.2784 18.4799 15.6005 18.8023 15.6005 19.1999ZM20.6405 9.11995C20.6405 9.51763 20.3184 9.83995 19.9205 9.83995H18.4805C18.0825 9.83995 17.7605 9.51763 17.7605 9.11995C17.7605 8.72227 18.0825 8.39995 18.4805 8.39995H19.9205C20.3184 8.39995 20.6405 8.72227 20.6405 9.11995Z" fill="#1998D5"/>
</svg>
