<svg width="64" height="64" viewBox="0 0 64 64" fill="none" xmlns="http://www.w3.org/2000/svg">
<g clip-path="url(#clip0_690_11459)">
<path d="M54.4609 64H49.5382C48.1062 64 46.5649 62.9227 46.5649 60.5574V57.08C46.5649 55.664 45.8396 54.2827 44.5729 53.2907C41.5942 50.9547 39.9302 47.456 40.0022 43.6907C40.1249 37.3387 45.4236 32.0907 51.8209 31.9974C55.1542 31.928 58.1436 33.1787 60.4502 35.4587C62.7382 37.7174 63.9996 40.7227 63.9996 43.928C63.9996 47.5174 62.3942 50.88 59.5969 53.1574C58.2236 54.2747 57.4342 55.8054 57.4342 57.352V61.0374C57.4342 62.672 56.1009 64 54.4609 64ZM51.9942 34.6667C51.9489 34.6667 51.9062 34.6667 51.8582 34.6667C46.9702 34.7387 42.7596 38.896 42.6689 43.744C42.6129 46.664 43.9062 49.3787 46.2182 51.192C48.1329 52.6907 49.2316 54.84 49.2316 57.08V60.5574C49.2316 60.6374 49.2396 61.3334 49.5382 61.3334H54.4609C54.6289 61.3334 54.7676 61.2 54.7676 61.0374V57.352C54.7676 54.9974 55.9142 52.7147 57.9142 51.088C60.0849 49.32 61.3329 46.712 61.3329 43.928C61.3329 41.4427 60.3542 39.1094 58.5809 37.36C56.8156 35.6187 54.4822 34.6667 51.9942 34.6667Z" fill="#EF632F"/>
<path d="M56.1005 59.112H47.8978C47.1618 59.112 46.5645 58.5146 46.5645 57.7786C46.5645 57.0426 47.1618 56.4453 47.8978 56.4453H56.1005C56.8365 56.4453 57.4338 57.0426 57.4338 57.7786C57.4338 58.5146 56.8365 59.112 56.1005 59.112Z" fill="#EF632F"/>
<path d="M36 56H6.66667C2.98933 56 0 53.0107 0 49.3333V14.6667C0 10.9893 2.98933 8 6.66667 8H12C12.736 8 13.3333 8.59733 13.3333 9.33333C13.3333 10.0693 12.736 10.6667 12 10.6667H6.66667C4.46133 10.6667 2.66667 12.4613 2.66667 14.6667V49.3333C2.66667 51.5387 4.46133 53.3333 6.66667 53.3333H36C36.736 53.3333 37.3333 53.9307 37.3333 54.6667C37.3333 55.4027 36.736 56 36 56Z" fill="#EF632F"/>
<path d="M30.666 16H14.666C12.4607 16 10.666 14.2053 10.666 12V6.66667C10.666 5.93067 11.2633 5.33333 11.9993 5.33333H16.1327C16.7513 2.29333 19.4473 0 22.666 0C25.8847 0 28.5807 2.29333 29.1993 5.33333H33.3327C34.0687 5.33333 34.666 5.93067 34.666 6.66667V12C34.666 14.2053 32.8713 16 30.666 16ZM13.3327 8V12C13.3327 12.7333 13.9327 13.3333 14.666 13.3333H30.666C31.3993 13.3333 31.9993 12.7333 31.9993 12V8H27.9993C27.2633 8 26.666 7.40267 26.666 6.66667C26.666 4.46133 24.8713 2.66667 22.666 2.66667C20.4607 2.66667 18.666 4.46133 18.666 6.66667C18.666 7.40267 18.0687 8 17.3327 8H13.3327Z" fill="#EF632F"/>
<path d="M36 24H9.33333C8.59733 24 8 23.4027 8 22.6667C8 21.9307 8.59733 21.3334 9.33333 21.3334H36C36.736 21.3334 37.3333 21.9307 37.3333 22.6667C37.3333 23.4027 36.736 24 36 24Z" fill="#EF632F"/>
<path d="M36 32H9.33333C8.59733 32 8 31.4027 8 30.6667C8 29.9307 8.59733 29.3334 9.33333 29.3334H36C36.736 29.3334 37.3333 29.9307 37.3333 30.6667C37.3333 31.4027 36.736 32 36 32Z" fill="#EF632F"/>
<path d="M33.3333 40H9.33333C8.59733 40 8 39.4027 8 38.6667C8 37.9307 8.59733 37.3334 9.33333 37.3334H33.3333C34.0693 37.3334 34.6667 37.9307 34.6667 38.6667C34.6667 39.4027 34.0693 40 33.3333 40Z" fill="#EF632F"/>
<path d="M44 29.3333C43.264 29.3333 42.6667 28.736 42.6667 28V14.6667C42.6667 12.4613 40.872 10.6667 38.6667 10.6667H33.3333C32.5973 10.6667 32 10.0693 32 9.33333C32 8.59733 32.5973 8 33.3333 8H38.6667C42.344 8 45.3333 10.9893 45.3333 14.6667V28C45.3333 28.736 44.736 29.3333 44 29.3333Z" fill="#EF632F"/>
</g>
<defs>
<clipPath id="clip0_690_11459">
<rect width="64" height="64" fill="white"/>
</clipPath>
</defs>
</svg>
