<svg width="240" height="240" viewBox="0 0 240 240" fill="none" xmlns="http://www.w3.org/2000/svg">
<g clip-path="url(#clip0_441_35853)">
<path d="M235 240H5C2.24 240 0 237.76 0 235C0 232.24 2.24 230 5 230H235C237.76 230 240 232.24 240 235C240 237.76 237.76 240 235 240Z" fill="#5E6783"/>
<path d="M65 240H15C12.24 240 10 237.76 10 235V180C10 174.49 14.48 170 20 170H60C65.52 170 70 174.49 70 180V235C70 237.76 67.76 240 65 240ZM20 230H60V180H20V230Z" fill="#5E6783"/>
<path d="M145 240H95C92.24 240 90 237.76 90 235V120C90 114.49 94.48 110 100 110H140C145.52 110 150 114.49 150 120V235C150 237.76 147.76 240 145 240ZM100 230H140V120H100V230Z" fill="#5E6783"/>
<path d="M225 240H175C172.24 240 170 237.76 170 235V140C170 134.49 174.48 130 180 130H220C225.52 130 230 134.49 230 140V235C230 237.76 227.76 240 225 240ZM180 230H220V140H180V230Z" fill="#5E6783"/>
<path d="M25.0005 110C23.7205 110 22.4405 109.51 21.4605 108.54C19.5105 106.59 19.5105 103.42 21.4605 101.47L71.4605 51.4699C72.7005 50.2299 74.4905 49.7099 76.2105 50.1499L153.471 69.4599L211.471 11.4599C213.421 9.50994 216.591 9.50994 218.541 11.4599C220.491 13.4099 220.491 16.5799 218.541 18.5299L158.541 78.5299C157.311 79.7699 155.511 80.2699 153.791 79.8399L76.5305 60.5399L28.5305 108.54C27.5605 109.51 26.2805 110 25.0005 110Z" fill="#5E6783"/>
<path d="M215 60C212.24 60 210 57.76 210 55V20H175C172.24 20 170 17.76 170 15C170 12.24 172.24 10 175 10H215C217.76 10 220 12.24 220 15V55C220 57.76 217.76 60 215 60Z" fill="#5E6783"/>
</g>
<defs>
<clipPath id="clip0_441_35853">
<rect width="240" height="240" fill="white"/>
</clipPath>
</defs>
</svg>
