<svg width="48" height="48" viewBox="0 0 48 48" fill="none" xmlns="http://www.w3.org/2000/svg">
<g clip-path="url(#clip0_606_11843)">
<path d="M29 48H7C4.244 48 2 45.758 2 43V5C2 2.242 4.244 0 7 0H29C31.756 0 34 2.242 34 5V9C34 9.552 33.552 10 33 10C32.448 10 32 9.552 32 9V5C32 3.346 30.654 2 29 2H7C5.346 2 4 3.346 4 5V43C4 44.654 5.346 46 7 46H29C30.654 46 32 44.654 32 43V39C32 38.448 32.448 38 33 38C33.552 38 34 38.448 34 39V43C34 45.758 31.756 48 29 48Z" fill="#88D2F2"/>
<path d="M22 6H14C12.346 6 11 4.654 11 3C11 2.45 10.552 2 10 2H8C7.448 2 7 1.552 7 1C7 0.448 7.448 0 8 0H10C11.654 0 13 1.346 13 3C13 3.55 13.448 4 14 4H22C22.552 4 23 3.55 23 3C23 1.346 24.346 0 26 0H28C28.552 0 29 0.448 29 1C29 1.552 28.552 2 28 2H26C25.448 2 25 2.45 25 3C25 4.654 23.654 6 22 6Z" fill="#88D2F2"/>
<path d="M41 36H23C21.346 36 20 34.654 20 33V15C20 13.346 21.346 12 23 12H41C42.654 12 44 13.346 44 15V33C44 34.654 42.654 36 41 36ZM23 14C22.448 14 22 14.45 22 15V33C22 33.55 22.448 34 23 34H41C41.552 34 42 33.55 42 33V15C42 14.45 41.552 14 41 14H23Z" fill="#88D2F2"/>
<path d="M35 22H29C28.448 22 28 21.552 28 21V13C28 12.448 28.448 12 29 12H35C35.552 12 36 12.448 36 13V21C36 21.552 35.552 22 35 22ZM30 20H34V14H30V20Z" fill="#88D2F2"/>
<path d="M39 32H35C34.448 32 34 31.552 34 31C34 30.448 34.448 30 35 30H39C39.552 30 40 30.448 40 31C40 31.552 39.552 32 39 32Z" fill="#88D2F2"/>
</g>
<defs>
<clipPath id="clip0_606_11843">
<rect width="48" height="48" fill="white"/>
</clipPath>
</defs>
</svg>
