<svg width="16" height="17" viewBox="0 0 16 17" fill="none" xmlns="http://www.w3.org/2000/svg">
<path d="M12 7.16667V5.16667C12 4.10581 11.5786 3.08839 10.8284 2.33824C10.0783 1.5881 9.06087 1.16667 8 1.16667C6.93913 1.16667 5.92172 1.5881 5.17157 2.33824C4.42143 3.08839 4 4.10581 4 5.16667V7.16667C3.46957 7.16667 2.96086 7.37739 2.58579 7.75246C2.21071 8.12753 2 8.63624 2 9.16667V13.8333C2 14.3638 2.21071 14.8725 2.58579 15.2476C2.96086 15.6226 3.46957 15.8333 4 15.8333H12C12.5304 15.8333 13.0391 15.6226 13.4142 15.2476C13.7893 14.8725 14 14.3638 14 13.8333V9.16667C14 8.63624 13.7893 8.12753 13.4142 7.75246C13.0391 7.37739 12.5304 7.16667 12 7.16667ZM5.33333 5.16667C5.33333 4.45943 5.61428 3.78115 6.11438 3.28105C6.61448 2.78096 7.29276 2.50001 8 2.50001C8.70724 2.50001 9.38552 2.78096 9.88562 3.28105C10.3857 3.78115 10.6667 4.45943 10.6667 5.16667V7.16667H5.33333V5.16667ZM12.6667 13.8333C12.6667 14.0101 12.5964 14.1797 12.4714 14.3047C12.3464 14.4298 12.1768 14.5 12 14.5H4C3.82319 14.5 3.65362 14.4298 3.5286 14.3047C3.40357 14.1797 3.33333 14.0101 3.33333 13.8333V9.16667C3.33333 8.98986 3.40357 8.82029 3.5286 8.69527C3.65362 8.57024 3.82319 8.50001 4 8.50001H12C12.1768 8.50001 12.3464 8.57024 12.4714 8.69527C12.5964 8.82029 12.6667 8.98986 12.6667 9.16667V13.8333Z" fill="#C0DEEC"/>
</svg>
