<svg width="116" height="32" viewBox="0 0 116 32" fill="none" xmlns="http://www.w3.org/2000/svg">
<g clip-path="url(#clip0_614_11034)">
<path d="M19.6202 18.5735L15.5344 23.8597C13.8673 25.8926 11.2617 26.9872 8.23643 26.9872C3.07483 26.9872 0 23.2342 0 19.1684C0 12.5511 5.94366 9.4236 14.9621 9.4236C14.9621 9.4236 17.8157 9.36257 20.9211 10.2551C20.9211 10.2551 19.3112 17.1623 19.624 18.5696L19.6202 18.5735ZM16.0113 14.1949C11.8415 14.1949 7.8206 15.3697 7.8206 18.3904C7.8206 20.4233 9.1749 21.4111 10.9488 21.4111C12.8792 21.4111 15.1872 19.5804 15.7061 17.9632C15.8091 17.5475 16.0799 16.9677 16.0799 16.4986L16.0113 14.1911V14.1949Z" fill="#005F9E"/>
<g style="mix-blend-mode:soft-light" opacity="0.5">
<path d="M19.6202 18.5735L15.5344 23.8597C13.8673 25.8926 11.2617 26.9872 8.23643 26.9872C3.07483 26.9872 0 23.2342 0 19.1684C0 12.5511 5.94366 9.4236 14.9621 9.4236C14.9621 9.4236 17.8157 9.36257 20.9211 10.2551C20.9211 10.2551 19.3112 17.1623 19.624 18.5696L19.6202 18.5735ZM16.0113 14.1949C11.8415 14.1949 7.8206 15.3697 7.8206 18.3904C7.8206 20.4233 9.1749 21.4111 10.9488 21.4111C12.8792 21.4111 15.1872 19.5804 15.7061 17.9632C15.8091 17.5475 16.0799 16.9677 16.0799 16.4986L16.0113 14.1911V14.1949Z" fill="url(#paint0_linear_614_11034)"/>
</g>
<g style="mix-blend-mode:multiply" opacity="0.3">
<path d="M19.6202 18.5735L15.5344 23.8597C13.8673 25.8926 11.2617 26.9872 8.23643 26.9872C3.07483 26.9872 0 23.2342 0 19.1684C0 12.5511 5.94366 9.4236 14.9621 9.4236C14.9621 9.4236 17.8157 9.36257 20.9211 10.2551C20.9211 10.2551 19.3112 17.1623 19.624 18.5696L19.6202 18.5735ZM16.0113 14.1949C11.8415 14.1949 7.8206 15.3697 7.8206 18.3904C7.8206 20.4233 9.1749 21.4111 10.9488 21.4111C12.8792 21.4111 15.1872 19.5804 15.7061 17.9632C15.8091 17.5475 16.0799 16.9677 16.0799 16.4986L16.0113 14.1911V14.1949Z" fill="url(#paint1_linear_614_11034)"/>
</g>
<path d="M0.0424805 18.2225C1.28233 20.5834 4.29994 22.2501 7.82493 22.2501C10.1978 22.2501 12.338 21.4949 13.864 20.2821C12.9789 20.9457 11.9145 21.4072 10.9455 21.4072C9.1716 21.4072 7.8173 20.4155 7.8173 18.3865C7.8173 15.381 11.7925 14.2025 15.9393 14.191C15.2221 12.0857 13.1468 10.4037 10.4763 9.72101C4.41057 10.5868 0.488827 13.3634 0.0424805 18.2225Z" fill="#009ADE"/>
<path d="M20.368 12.8065C19.5745 11.3648 18.0485 10.1748 16.1067 9.45778C15.3933 9.41583 14.9623 9.42346 14.9623 9.42346C10.3157 9.42346 6.4893 10.2549 3.86845 11.9636C3.12454 12.8866 2.69727 13.9469 2.69727 15.0797C2.69727 18.2072 5.93614 20.8083 10.2089 21.3423C8.81259 21.0944 7.82071 20.1218 7.82071 18.3864C7.82071 15.3619 11.8416 14.191 16.0114 14.191L16.08 16.4985C16.08 16.9676 19.9522 14.8241 20.3642 12.8027L20.368 12.8065Z" fill="#F26322"/>
<path style="mix-blend-mode:overlay" opacity="0.5" d="M20.368 12.8065C19.5745 11.3648 18.0485 10.1748 16.1067 9.45778C15.3933 9.41583 14.9623 9.42346 14.9623 9.42346C10.3157 9.42346 6.4893 10.2549 3.86845 11.9636C3.12454 12.8866 2.69727 13.9469 2.69727 15.0797C2.69727 18.2072 5.93614 20.8083 10.2089 21.3423C8.81259 21.0944 7.82071 20.1218 7.82071 18.3864C7.82071 15.3619 11.8416 14.191 16.0114 14.191L16.08 16.4985C16.08 16.9676 19.9522 14.8241 20.3642 12.8027L20.368 12.8065Z" fill="url(#paint2_linear_614_11034)"/>
<path style="mix-blend-mode:multiply" opacity="0.3" d="M20.368 12.8065C19.5745 11.3648 18.0485 10.1748 16.1067 9.45778C15.3933 9.41583 14.9623 9.42346 14.9623 9.42346C10.3157 9.42346 6.4893 10.2549 3.86845 11.9636C3.12454 12.8866 2.69727 13.9469 2.69727 15.0797C2.69727 18.2072 5.93614 20.8083 10.2089 21.3423C8.81259 21.0944 7.82071 20.1218 7.82071 18.3864C7.82071 15.3619 11.8416 14.191 16.0114 14.191L16.08 16.4985C16.08 16.9676 19.9522 14.8241 20.3642 12.8027L20.368 12.8065Z" fill="url(#paint3_linear_614_11034)"/>
<path d="M9.11397 20.9495C7.0501 19.8587 5.75684 17.5054 6.04296 14.9462C6.34434 12.2535 8.30521 10.1672 10.7277 9.68665C7.9695 10.0528 5.64239 10.808 3.86845 11.9636C3.12454 12.8866 2.69727 13.9469 2.69727 15.0797C2.69727 18.15 5.82169 20.713 9.97615 21.3118C9.89222 21.2851 9.80829 21.2546 9.72818 21.2241C9.51073 21.1516 9.30472 21.0601 9.11779 20.9495H9.11397Z" fill="url(#paint4_linear_614_11034)"/>
<path d="M22.8819 20.263C22.8819 22.662 22.985 25.0038 23.2978 26.4112C23.2978 26.4112 18.3803 26.968 16.9497 25.9001C16.4309 25.5111 15.6412 24.4698 15.5993 22.4942C15.5649 20.8465 15.5191 14.9195 14.9583 9.11075C14.7905 7.49741 14.2259 5.88789 10.3194 5.77729C6.81729 5.67431 3.25415 7.7377 1.58702 8.77893C1.58702 8.77893 0.736295 5.1289 2.62087 3.363C4.66949 1.44836 7.08815 0.304153 11.7271 0.304153C20.2229 0.304153 22.8819 5.30816 22.8819 11.3534V20.2668V20.263Z" fill="#005F9E"/>
<g style="mix-blend-mode:soft-light" opacity="0.5">
<path d="M22.8819 20.263C22.8819 22.662 22.985 25.0038 23.2978 26.4112C23.2978 26.4112 18.3803 26.968 16.9497 25.9001C16.4309 25.5111 15.6412 24.4698 15.5993 22.4942C15.5649 20.8465 15.5191 14.9195 14.9583 9.11075C14.7905 7.49741 14.2259 5.88789 10.3194 5.77729C6.81729 5.67431 3.25415 7.7377 1.58702 8.77893C1.58702 8.77893 0.736295 5.1289 2.62087 3.363C4.66949 1.44836 7.08815 0.304153 11.7271 0.304153C20.2229 0.304153 22.8819 5.30816 22.8819 11.3534V20.2668V20.263Z" fill="url(#paint5_linear_614_11034)"/>
</g>
<path d="M22.882 13.7219C21.2454 8.39372 15.9656 5.77348 10.1821 5.77348C10.2279 5.77348 10.2737 5.77348 10.3195 5.77348C14.226 5.8879 14.7906 7.49742 14.9584 9.10694C15.5192 14.9157 15.565 20.8427 15.5993 22.4904C15.6413 24.4699 16.431 25.5111 16.9498 25.8963C18.3804 26.9642 23.2978 26.4074 23.2978 26.4074C22.985 25 22.882 22.6544 22.882 20.2592V13.7181V13.7219Z" fill="#F26322"/>
<path style="mix-blend-mode:overlay" opacity="0.5" d="M22.882 13.7219C21.2454 8.39372 15.9656 5.77348 10.1821 5.77348C10.2279 5.77348 10.2737 5.77348 10.3195 5.77348C14.226 5.8879 14.7906 7.49742 14.9584 9.10694C15.5192 14.9157 15.565 20.8427 15.5993 22.4904C15.6413 24.4699 16.431 25.5111 16.9498 25.8963C18.3804 26.9642 23.2978 26.4074 23.2978 26.4074C22.985 25 22.882 22.6544 22.882 20.2592V13.7181V13.7219Z" fill="url(#paint6_linear_614_11034)"/>
<path d="M22.897 21.6322C22.8894 21.1822 22.8856 20.7245 22.8856 20.263V13.7219C21.3367 8.67978 16.5223 6.06335 11.1089 5.79637C16.9724 6.38373 21.764 12.9896 22.897 21.6322Z" fill="url(#paint7_linear_614_11034)"/>
<path d="M93.4809 20.3775V11.9104C93.4809 6.16645 90.9554 1.41417 82.8831 1.41417C78.4768 1.41417 76.1764 2.50117 74.2308 4.32046C72.4378 5.99863 73.2466 9.46558 73.2466 9.46558C74.8297 8.47394 78.2174 6.51734 81.544 6.61269C85.2559 6.71948 85.7938 8.24891 85.9503 9.78215C85.9617 9.88131 85.9693 9.98048 85.977 10.0796C85.9579 10.0796 85.9503 10.0796 85.9503 10.0796C77.3819 10.0796 71.7358 13.0508 71.7358 19.3401C71.7358 23.2037 74.6581 26.766 79.5603 26.766C82.4329 26.766 84.9088 25.7248 86.4958 23.7949L86.6713 23.566C86.904 24.7637 87.4533 25.4464 87.8425 25.7362C89.2006 26.7508 93.8739 26.2206 93.8739 26.2206C93.5763 24.8819 93.4771 22.6545 93.4771 20.3775H93.4809ZM82.1391 21.4683C80.4568 21.4683 79.1673 20.5263 79.1673 18.5964C79.1673 15.8808 82.5855 14.7366 86.3089 14.6183C86.389 16.0677 86.4386 17.4331 86.4767 18.6193C85.7595 20.0343 83.8025 21.4683 82.1391 21.4683Z" fill="#005F9E"/>
<path d="M35.6545 5.31199C38.386 2.39426 40.2706 1.44456 43.4294 1.44456C47.0726 1.44456 49.5027 2.87101 51.3835 6.08624C54.3591 2.57352 56.484 1.44456 60.2494 1.44456C66.0175 1.44456 69.1763 4.77803 69.1763 10.7889V26.4455H65.2393C62.9542 26.4455 61.1001 24.5919 61.1001 22.3073V13.8859C61.0391 9.59896 60.0663 8.22972 57.1517 8.22972C54.237 8.22972 52.4135 10.255 52.4135 13.8859V26.4455H47.3206C45.6725 26.4455 44.3335 25.1106 44.3335 23.4591V13.8859C44.3335 9.59896 43.2997 8.22972 40.324 8.22972C37.3484 8.22972 35.6469 10.1939 35.6469 13.8859V26.4455H30.2106C28.7495 26.4455 27.5669 25.2632 27.5669 23.8024V2.27602H32.6064C34.285 2.27602 35.6431 3.63382 35.6431 5.31199H35.6545Z" fill="#005F9E"/>
<path d="M106.348 6.20459C108.92 2.87113 110.964 1.4752 113.398 1.86041C118.453 2.65373 114.451 9.53805 114.451 9.53805C112.872 8.88204 112.212 8.7066 111.09 8.7066C107.863 8.7066 106.348 11.1476 106.348 16.3842V26.4456H101.271C99.2373 26.4456 97.5854 24.9238 97.5854 23.0512V2.27614H102.087C104.441 2.27614 106.348 4.03441 106.348 6.20459Z" fill="#005F9E"/>
</g>
<defs>
<linearGradient id="paint0_linear_614_11034" x1="7.93886" y1="11.5823" x2="14.4182" y2="22.4422" gradientUnits="userSpaceOnUse">
<stop stop-color="white"/>
<stop offset="1"/>
</linearGradient>
<linearGradient id="paint1_linear_614_11034" x1="9.52969" y1="18.3904" x2="14.3057" y2="16.4444" gradientUnits="userSpaceOnUse">
<stop stop-color="white"/>
<stop offset="1"/>
</linearGradient>
<linearGradient id="paint2_linear_614_11034" x1="6.03533" y1="17.185" x2="16.3498" y2="11.5267" gradientUnits="userSpaceOnUse">
<stop stop-color="white"/>
<stop offset="1"/>
</linearGradient>
<linearGradient id="paint3_linear_614_11034" x1="11.1283" y1="15.4153" x2="17.3351" y2="14.5033" gradientUnits="userSpaceOnUse">
<stop stop-color="white"/>
<stop offset="1"/>
</linearGradient>
<linearGradient id="paint4_linear_614_11034" x1="5.87892" y1="20.5986" x2="7.88846" y2="9.18685" gradientUnits="userSpaceOnUse">
<stop offset="0.77" stop-color="#FFE100"/>
<stop offset="1" stop-color="#FFC643"/>
</linearGradient>
<linearGradient id="paint5_linear_614_11034" x1="15.2788" y1="1.17757" x2="13.9823" y2="7.86749" gradientUnits="userSpaceOnUse">
<stop stop-color="white"/>
<stop offset="1"/>
</linearGradient>
<linearGradient id="paint6_linear_614_11034" x1="17.9455" y1="10.1787" x2="15.2114" y2="23.6234" gradientUnits="userSpaceOnUse">
<stop stop-color="white"/>
<stop offset="1"/>
</linearGradient>
<linearGradient id="paint7_linear_614_11034" x1="9.38072" y1="10.5372" x2="24.8799" y2="16.1767" gradientUnits="userSpaceOnUse">
<stop offset="0.66" stop-color="#FFE100"/>
<stop offset="1" stop-color="#FFC643"/>
</linearGradient>
<clipPath id="clip0_614_11034">
<rect width="115.458" height="31.3917" fill="white" transform="translate(0 0.304153)"/>
</clipPath>
</defs>
</svg>
