<svg width="24" height="27" viewBox="0 0 24 27" fill="none" xmlns="http://www.w3.org/2000/svg">
<path d="M19.6202 18.5735L15.5344 23.8597C13.8673 25.8926 11.2617 26.9872 8.23643 26.9872C3.07483 26.9872 0 23.2342 0 19.1684C0 12.5511 5.94366 9.4236 14.9621 9.4236C14.9621 9.4236 17.8157 9.36257 20.9211 10.2551C20.9211 10.2551 19.3112 17.1623 19.624 18.5696L19.6202 18.5735ZM16.0113 14.1949C11.8415 14.1949 7.8206 15.3697 7.8206 18.3904C7.8206 20.4233 9.1749 21.4111 10.9488 21.4111C12.8792 21.4111 15.1872 19.5804 15.7061 17.9632C15.8091 17.5475 16.0799 16.9677 16.0799 16.4986L16.0113 14.1911V14.1949Z" fill="#005F9E"/>
<g style="mix-blend-mode:soft-light" opacity="0.5">
<path d="M19.6202 18.5735L15.5344 23.8597C13.8673 25.8926 11.2617 26.9872 8.23643 26.9872C3.07483 26.9872 0 23.2342 0 19.1684C0 12.5511 5.94366 9.4236 14.9621 9.4236C14.9621 9.4236 17.8157 9.36257 20.9211 10.2551C20.9211 10.2551 19.3112 17.1623 19.624 18.5696L19.6202 18.5735ZM16.0113 14.1949C11.8415 14.1949 7.8206 15.3697 7.8206 18.3904C7.8206 20.4233 9.1749 21.4111 10.9488 21.4111C12.8792 21.4111 15.1872 19.5804 15.7061 17.9632C15.8091 17.5475 16.0799 16.9677 16.0799 16.4986L16.0113 14.1911V14.1949Z" fill="url(#paint0_linear_617_3401)"/>
</g>
<g style="mix-blend-mode:multiply" opacity="0.3">
<path d="M19.6202 18.5735L15.5344 23.8597C13.8673 25.8926 11.2617 26.9872 8.23643 26.9872C3.07483 26.9872 0 23.2342 0 19.1684C0 12.5511 5.94366 9.4236 14.9621 9.4236C14.9621 9.4236 17.8157 9.36257 20.9211 10.2551C20.9211 10.2551 19.3112 17.1623 19.624 18.5696L19.6202 18.5735ZM16.0113 14.1949C11.8415 14.1949 7.8206 15.3697 7.8206 18.3904C7.8206 20.4233 9.1749 21.4111 10.9488 21.4111C12.8792 21.4111 15.1872 19.5804 15.7061 17.9632C15.8091 17.5475 16.0799 16.9677 16.0799 16.4986L16.0113 14.1911V14.1949Z" fill="url(#paint1_linear_617_3401)"/>
</g>
<path d="M0.0419922 18.2225C1.28184 20.5834 4.29945 22.2501 7.82444 22.2501C10.1973 22.2501 12.3375 21.4949 13.8635 20.2821C12.9784 20.9457 11.914 21.4072 10.9451 21.4072C9.17111 21.4072 7.81681 20.4155 7.81681 18.3865C7.81681 15.381 11.792 14.2025 15.9388 14.191C15.2216 12.0857 13.1463 10.4037 10.4758 9.72101C4.41008 10.5868 0.488339 13.3634 0.0419922 18.2225Z" fill="#009ADE"/>
<path d="M20.368 12.8065C19.5745 11.3648 18.0485 10.1748 16.1067 9.45778C15.3933 9.41583 14.9623 9.42346 14.9623 9.42346C10.3157 9.42346 6.4893 10.2549 3.86845 11.9636C3.12454 12.8866 2.69727 13.9469 2.69727 15.0797C2.69727 18.2072 5.93614 20.8083 10.2089 21.3423C8.81259 21.0944 7.82071 20.1218 7.82071 18.3864C7.82071 15.3619 11.8416 14.191 16.0114 14.191L16.08 16.4985C16.08 16.9676 19.9522 14.8241 20.3642 12.8027L20.368 12.8065Z" fill="#F26322"/>
<path style="mix-blend-mode:overlay" opacity="0.5" d="M20.368 12.8065C19.5745 11.3648 18.0485 10.1748 16.1067 9.45778C15.3933 9.41583 14.9623 9.42346 14.9623 9.42346C10.3157 9.42346 6.4893 10.2549 3.86845 11.9636C3.12454 12.8866 2.69727 13.9469 2.69727 15.0797C2.69727 18.2072 5.93614 20.8083 10.2089 21.3423C8.81259 21.0944 7.82071 20.1218 7.82071 18.3864C7.82071 15.3619 11.8416 14.191 16.0114 14.191L16.08 16.4985C16.08 16.9676 19.9522 14.8241 20.3642 12.8027L20.368 12.8065Z" fill="url(#paint2_linear_617_3401)"/>
<path style="mix-blend-mode:multiply" opacity="0.3" d="M20.368 12.8065C19.5745 11.3648 18.0485 10.1748 16.1067 9.45778C15.3933 9.41583 14.9623 9.42346 14.9623 9.42346C10.3157 9.42346 6.4893 10.2549 3.86845 11.9636C3.12454 12.8866 2.69727 13.9469 2.69727 15.0797C2.69727 18.2072 5.93614 20.8083 10.2089 21.3423C8.81259 21.0944 7.82071 20.1218 7.82071 18.3864C7.82071 15.3619 11.8416 14.191 16.0114 14.191L16.08 16.4985C16.08 16.9676 19.9522 14.8241 20.3642 12.8027L20.368 12.8065Z" fill="url(#paint3_linear_617_3401)"/>
<path d="M9.11397 20.9495C7.0501 19.8587 5.75684 17.5054 6.04296 14.9462C6.34434 12.2535 8.30521 10.1672 10.7277 9.68665C7.9695 10.0528 5.64239 10.808 3.86845 11.9636C3.12454 12.8866 2.69727 13.9469 2.69727 15.0797C2.69727 18.15 5.82169 20.713 9.97615 21.3118C9.89222 21.2851 9.80829 21.2546 9.72818 21.2241C9.51073 21.1516 9.30472 21.0601 9.11779 20.9495H9.11397Z" fill="url(#paint4_linear_617_3401)"/>
<path d="M22.8819 20.263C22.8819 22.662 22.985 25.0038 23.2978 26.4112C23.2978 26.4112 18.3803 26.968 16.9497 25.9001C16.4309 25.5111 15.6412 24.4698 15.5993 22.4942C15.5649 20.8465 15.5191 14.9195 14.9583 9.11075C14.7905 7.49741 14.2259 5.88789 10.3194 5.77729C6.81729 5.67431 3.25415 7.7377 1.58702 8.77893C1.58702 8.77893 0.736295 5.1289 2.62087 3.363C4.66949 1.44836 7.08815 0.304153 11.7271 0.304153C20.2229 0.304153 22.8819 5.30816 22.8819 11.3534V20.2668V20.263Z" fill="#005F9E"/>
<g style="mix-blend-mode:soft-light" opacity="0.5">
<path d="M22.8819 20.263C22.8819 22.662 22.985 25.0038 23.2978 26.4112C23.2978 26.4112 18.3803 26.968 16.9497 25.9001C16.4309 25.5111 15.6412 24.4698 15.5993 22.4942C15.5649 20.8465 15.5191 14.9195 14.9583 9.11075C14.7905 7.49741 14.2259 5.88789 10.3194 5.77729C6.81729 5.67431 3.25415 7.7377 1.58702 8.77893C1.58702 8.77893 0.736295 5.1289 2.62087 3.363C4.66949 1.44836 7.08815 0.304153 11.7271 0.304153C20.2229 0.304153 22.8819 5.30816 22.8819 11.3534V20.2668V20.263Z" fill="url(#paint5_linear_617_3401)"/>
</g>
<path d="M22.8825 13.7219C21.2459 8.39372 15.966 5.77348 10.1826 5.77348C10.2284 5.77348 10.2742 5.77348 10.32 5.77348C14.2264 5.8879 14.791 7.49742 14.9589 9.10694C15.5197 14.9157 15.5655 20.8427 15.5998 22.4904C15.6418 24.4699 16.4315 25.5111 16.9503 25.8963C18.3809 26.9642 23.2983 26.4074 23.2983 26.4074C22.9855 25 22.8825 22.6544 22.8825 20.2592V13.7181V13.7219Z" fill="#F26322"/>
<path style="mix-blend-mode:overlay" opacity="0.5" d="M22.8825 13.7219C21.2459 8.39372 15.966 5.77348 10.1826 5.77348C10.2284 5.77348 10.2742 5.77348 10.32 5.77348C14.2264 5.8879 14.791 7.49742 14.9589 9.10694C15.5197 14.9157 15.5655 20.8427 15.5998 22.4904C15.6418 24.4699 16.4315 25.5111 16.9503 25.8963C18.3809 26.9642 23.2983 26.4074 23.2983 26.4074C22.9855 25 22.8825 22.6544 22.8825 20.2592V13.7181V13.7219Z" fill="url(#paint6_linear_617_3401)"/>
<path d="M22.8975 21.6322C22.8899 21.1822 22.8861 20.7245 22.8861 20.263V13.7219C21.3372 8.67978 16.5228 6.06335 11.1094 5.79637C16.9729 6.38373 21.7645 12.9896 22.8975 21.6322Z" fill="url(#paint7_linear_617_3401)"/>
<defs>
<linearGradient id="paint0_linear_617_3401" x1="7.93886" y1="11.5823" x2="14.4182" y2="22.4422" gradientUnits="userSpaceOnUse">
<stop stop-color="white"/>
<stop offset="1"/>
</linearGradient>
<linearGradient id="paint1_linear_617_3401" x1="9.52969" y1="18.3904" x2="14.3057" y2="16.4444" gradientUnits="userSpaceOnUse">
<stop stop-color="white"/>
<stop offset="1"/>
</linearGradient>
<linearGradient id="paint2_linear_617_3401" x1="6.03533" y1="17.185" x2="16.3498" y2="11.5267" gradientUnits="userSpaceOnUse">
<stop stop-color="white"/>
<stop offset="1"/>
</linearGradient>
<linearGradient id="paint3_linear_617_3401" x1="11.1283" y1="15.4153" x2="17.3351" y2="14.5033" gradientUnits="userSpaceOnUse">
<stop stop-color="white"/>
<stop offset="1"/>
</linearGradient>
<linearGradient id="paint4_linear_617_3401" x1="5.87892" y1="20.5986" x2="7.88846" y2="9.18685" gradientUnits="userSpaceOnUse">
<stop offset="0.77" stop-color="#FFE100"/>
<stop offset="1" stop-color="#FFC643"/>
</linearGradient>
<linearGradient id="paint5_linear_617_3401" x1="15.2788" y1="1.17757" x2="13.9823" y2="7.86749" gradientUnits="userSpaceOnUse">
<stop stop-color="white"/>
<stop offset="1"/>
</linearGradient>
<linearGradient id="paint6_linear_617_3401" x1="17.946" y1="10.1787" x2="15.2119" y2="23.6234" gradientUnits="userSpaceOnUse">
<stop stop-color="white"/>
<stop offset="1"/>
</linearGradient>
<linearGradient id="paint7_linear_617_3401" x1="9.38121" y1="10.5372" x2="24.8804" y2="16.1767" gradientUnits="userSpaceOnUse">
<stop offset="0.66" stop-color="#FFE100"/>
<stop offset="1" stop-color="#FFC643"/>
</linearGradient>
</defs>
</svg>
