<svg width="64" height="64" viewBox="0 0 64 64" fill="none" xmlns="http://www.w3.org/2000/svg">
<path d="M51.466 5.33337C51.9993 5.06671 52.7993 5.33337 53.3327 5.86671V6.66671C53.3327 7.20004 53.066 7.46671 52.5327 7.73337L50.666 8.80004V5.86671L51.466 5.33337Z" fill="#EF632F"/>
<path d="M32.266 15.7334L18.666 8.80003V5.8667L33.3327 13.3334C34.1327 13.8667 34.9327 13.8667 35.7327 13.3334L50.666 5.8667V8.80003L37.066 15.7334C36.266 16.2667 35.466 16.2667 34.666 16.2667C33.866 16.2667 33.066 16.2667 32.266 15.7334Z" fill="#EF632F"/>
<path d="M57.3327 40.0001C59.466 40.0001 61.3327 38.1334 61.3327 36.0001V20.0001C61.3327 18.6668 60.5327 17.3334 59.1994 16.5334C58.666 16.2668 58.3993 15.4668 58.666 14.6668C58.9327 14.1334 59.7327 13.8668 60.5327 14.1334C62.666 15.4668 63.9994 17.6001 63.9994 20.0001V36.0001C63.9994 39.7334 61.066 42.6668 57.3327 42.6668H47.7327L39.466 50.4001C39.1993 50.6668 38.9327 50.6668 38.666 50.6668C38.3993 50.6668 38.3993 50.6668 38.1327 50.6668C37.5993 50.4001 37.3327 49.8668 37.3327 49.3334V42.6668H33.3327C29.5993 42.6668 26.666 39.7334 26.666 36.0001V33.3334C26.666 32.5334 27.1993 32.0001 27.9993 32.0001C28.7993 32.0001 29.3327 32.5334 29.3327 33.3334V36.0001C29.3327 38.1334 31.1993 40.0001 33.3327 40.0001H38.666C39.466 40.0001 39.9993 40.5334 39.9993 41.3334V46.4001L46.3993 40.5334C46.666 40.2668 46.9327 40.2668 47.1994 40.2668H57.3327V40.0001Z" fill="#EF632F"/>
<path d="M16.2667 5.86671C16.5333 5.33337 17.3333 5.06671 17.8667 5.33337L18.6667 5.86671V8.80004L16.8 7.73337C16.2667 7.46671 16 6.93337 16 6.66671C16 6.40004 16 6.13337 16.2667 5.86671Z" fill="#EF632F"/>
<path d="M20 26.6667C17.8667 26.6667 16 24.8001 16 22.6667V6.66675C16 7.20008 16.2667 7.46675 16.8 7.73341L18.6667 8.80008V22.6667C18.6667 23.4667 19.2 24.0001 20 24.0001H49.3333C50.1333 24.0001 50.6667 23.4667 50.6667 22.6667V8.80008L52.5333 7.73341C53.0667 7.46675 53.3333 6.93341 53.3333 6.66675V22.6667C53.3333 24.8001 51.4667 26.6667 49.3333 26.6667H20Z" fill="#EF632F"/>
<path d="M18.6667 4V5.86667L17.8667 5.33333C17.3333 5.06667 16.5333 5.33333 16.2667 5.86667C16 6.13333 16 6.4 16 6.66667V4C16 1.86667 17.8667 0 20 0H49.3333C51.4667 0 53.3333 1.86667 53.3333 4V6.66667C53.3333 6.4 53.3333 6.13333 53.0667 6.13333C52.8 5.33333 52 5.06667 51.4667 5.33333L50.6667 5.86667V4C50.6667 3.2 50.1333 2.66667 49.3333 2.66667H20C19.2 2.66667 18.6667 3.2 18.6667 4Z" fill="#EF632F"/>
<path d="M19.9993 38.6667C19.9993 35.7334 17.5993 33.3334 14.666 33.3334C11.7327 33.3334 9.33268 35.7334 9.33268 38.6667C9.33268 41.6001 11.7327 44.0001 14.666 44.0001C17.5993 44.0001 19.9993 41.6001 19.9993 38.6667ZM14.666 46.6667C10.1327 46.6667 6.66602 42.9334 6.66602 38.6667C6.66602 34.4001 10.1327 30.6667 14.666 30.6667C19.1993 30.6667 22.666 34.4001 22.666 38.6667C22.666 42.9334 19.1993 46.6667 14.666 46.6667Z" fill="#EF632F"/>
<path d="M26.6667 62.6667V57.3334C26.6667 55.2001 24.8 53.3334 22.6667 53.3334H6.66667C4.53333 53.3334 2.66667 55.2001 2.66667 57.3334V62.6667C2.66667 63.4667 2.13333 64.0001 1.33333 64.0001C0.533333 64.0001 0 63.4667 0 62.6667V57.3334C0 53.6001 2.93333 50.6667 6.66667 50.6667H22.6667C26.4 50.6667 29.3333 53.6001 29.3333 57.3334V62.6667C29.3333 63.4667 28.8 64.0001 28 64.0001C27.2 64.0001 26.6667 63.4667 26.6667 62.6667Z" fill="#EF632F"/>
</svg>
