<svg width="240" height="240" viewBox="0 0 240 240" fill="none" xmlns="http://www.w3.org/2000/svg">
<g clip-path="url(#clip0_441_33570)">
<path d="M175.05 149.17C175.51 148.09 176 147.14 176.57 146.57C177.92 145.23 181.09 144.27 184.16 143.34C189.26 141.789 195.05 140.04 197.96 135.009C200.83 130.05 199.47 124.209 198.28 119.059C197.54 115.899 196.78 112.629 197.3 110.719C197.75 108.969 200.08 106.499 202.13 104.319C205.82 100.39 210 95.94 210 90C210 84.06 205.82 79.6102 202.13 75.6802C200.08 73.5 197.76 71.0302 197.3 69.2902C196.79 67.38 197.55 64.1002 198.28 60.9403C199.471 55.7902 200.83 49.9505 197.96 44.9803C195.05 39.9502 189.27 38.2003 184.16 36.6605C181.09 35.7305 177.93 34.7705 176.58 33.4303C175.23 32.0902 174.28 28.9205 173.35 25.8502C171.81 20.7502 170.06 14.97 165.03 12.06C160.04 9.17016 154.22 10.53 149.06 11.73C145.9 12.4598 142.64 13.2202 140.72 12.7102C138.97 12.24 136.5 9.92016 134.32 7.87031C130.39 4.17984 125.94 0 120 0C114.07 0 109.62 4.17984 105.69 7.86984C103.5 9.91969 101.03 12.24 99.28 12.7097C97.36 13.2295 94.09 12.4598 90.94 11.7295C85.7701 10.5295 79.9398 9.17953 74.9701 12.0497C69.9503 14.9597 68.2 20.7398 66.6601 25.8497C65.7301 28.9195 64.7701 32.0897 63.43 33.4298C62.08 34.77 58.9098 35.73 55.84 36.66C50.74 38.2102 44.95 39.96 42.04 44.9902C39.1698 49.95 40.5301 55.7902 41.7198 60.9403C42.46 64.1002 43.2198 67.3702 42.7 69.2803C42.25 71.0302 39.9198 73.5005 37.87 75.6802C34.1804 79.6102 30.0001 84.0698 30.0001 90C30.0001 95.9302 34.18 100.39 37.87 104.32C39.9198 106.5 42.2401 108.97 42.7 110.71C43.21 112.62 42.4501 115.9 41.7198 119.06C40.5297 124.21 39.1698 130.05 42.04 135.02C44.95 140.05 50.7301 141.8 55.84 143.34C58.9098 144.27 62.0701 145.23 63.4201 146.57C63.9901 147.14 64.48 148.08 64.9403 149.16L30.3803 233.09C29.5801 235.02 30.0704 237.24 31.5901 238.66C32.5403 239.54 33.76 240 35.0003 240C35.7601 240 36.5204 239.83 37.2404 239.46L74.6406 220.761L102.231 239.151C103.501 239.991 105.091 240.201 106.541 239.751C107.991 239.28 109.151 238.181 109.681 236.751L120.601 207.63L130.251 236.58C130.751 238.06 131.911 239.22 133.381 239.73C134.851 240.231 136.471 240.03 137.771 239.16L165.361 220.77L202.761 239.47C203.481 239.83 204.241 240 205.001 240C206.241 240 207.461 239.541 208.401 238.671C209.921 237.251 210.411 235.031 209.611 233.1L175.05 149.17ZM115.32 193.23L102.53 227.33L77.7704 210.83C76.2606 209.84 74.3504 209.71 72.7604 210.52L44.7001 224.55L70.12 162.8C71.32 164.84 72.7998 166.68 74.9701 167.94C79.96 170.83 85.7903 169.47 90.94 168.27C94.09 167.54 97.3501 166.76 99.28 167.29C101.03 167.76 103.5 170.08 105.68 172.13C107.09 173.45 108.6 174.78 110.18 176.01C110.22 176.199 110.19 176.39 110.25 176.58L115.63 192.729C115.54 192.91 115.39 193.04 115.32 193.23ZM119.99 170C118.02 170 115.1 167.26 112.52 164.84C109.34 161.84 106.04 158.75 101.86 157.63C100.51 157.27 99.1506 157.12 97.7804 157.12C94.7504 157.12 91.6806 157.84 88.6904 158.53C85.4903 159.28 81.5303 160.2 79.9904 159.29C78.3803 158.36 77.2403 154.59 76.2306 151.26C74.9504 147.01 73.6304 142.62 70.5006 139.5C67.3806 136.38 62.9907 135.05 58.7406 133.77C55.4106 132.77 51.6404 131.63 50.7006 130.02C49.8104 128.47 50.7306 124.51 51.4707 121.32C52.4809 116.96 53.5206 112.46 52.3707 108.13C51.2406 103.95 48.1506 100.66 45.1609 97.47C42.7309 94.89 39.9911 91.9702 39.9911 90C39.9911 88.0298 42.7412 85.11 45.1609 82.53C48.1511 79.35 51.2509 76.05 52.3707 71.8702C53.5206 67.5502 52.4809 63.0502 51.4707 58.6903C50.7306 55.5005 49.8109 51.5405 50.7006 50.0002C51.6404 48.39 55.4106 47.25 58.7504 46.2403C63.0006 44.9602 67.3806 43.6303 70.5104 40.5103C73.6206 37.4002 74.9504 33.0005 76.2404 28.7602C77.2506 25.4302 78.3906 21.6502 79.9904 20.7202C81.5603 19.8403 85.5104 20.7502 88.6806 21.4903C93.0207 22.5005 97.5104 23.5505 101.86 22.3903C106.04 21.2705 109.34 18.1702 112.531 15.1805C115.101 12.7603 118.021 10.0205 119.991 10.0205C121.961 10.0205 124.881 12.7603 127.461 15.1805C130.641 18.1805 133.941 21.2705 138.121 22.3903C142.461 23.5505 146.961 22.5005 151.291 21.4903C154.48 20.7403 158.451 19.8305 159.991 20.7305C161.601 21.6605 162.741 25.4306 163.75 28.7606C165.031 33.0108 166.351 37.4006 169.48 40.5206C172.6 43.6406 176.99 44.9705 181.24 46.2506C184.57 47.2505 188.341 48.3905 189.28 50.0006C190.171 51.5508 189.25 55.5108 188.51 58.7006C187.5 63.0605 186.46 67.5605 187.61 71.8908C188.74 76.0706 191.83 79.3608 194.82 82.5506C197.25 85.1306 199.99 88.0505 199.99 90.0206C199.99 91.9908 197.24 94.9106 194.82 97.4906C191.83 100.671 188.73 103.971 187.61 108.15C186.46 112.47 187.5 116.97 188.51 121.33C189.25 124.52 190.17 128.48 189.28 130.02C188.341 131.631 184.57 132.771 181.231 133.78C176.98 135.06 172.6 136.39 169.471 139.51C166.36 142.62 165.031 147.02 163.741 151.26C162.73 154.59 161.59 158.37 159.991 159.3C158.451 160.191 154.48 159.27 151.3 158.53C146.96 157.52 142.471 156.47 138.121 157.63C133.941 158.75 130.641 161.85 127.45 164.84C124.88 167.26 121.96 170 119.99 170ZM167.23 210.53C165.631 209.72 163.711 209.84 162.22 210.84L137.671 227.21L121.831 179.69C126.831 178.93 130.81 175.42 134.311 172.13C136.501 170.08 138.97 167.76 140.721 167.29C142.651 166.78 145.911 167.54 149.061 168.27C154.231 169.47 160.061 170.82 165.031 167.95C167.191 166.7 168.67 164.85 169.87 162.81L195.29 224.56L167.23 210.53Z" fill="#5E6783"/>
<path d="M180 90C180 56.91 153.09 30 120 30C86.91 30 60 56.91 60 90C60 123.09 86.91 150 120 150C153.09 150 180 123.09 180 90ZM120 140C92.43 140 69.9998 117.57 69.9998 90C69.9998 62.43 92.43 39.9998 120 39.9998C147.57 39.9998 170 62.43 170 90C170 117.57 147.57 140 120 140Z" fill="#5E6783"/>
</g>
<defs>
<clipPath id="clip0_441_33570">
<rect width="240" height="240" fill="white"/>
</clipPath>
</defs>
</svg>
