<svg width="64" height="64" viewBox="0 0 64 64" fill="none" xmlns="http://www.w3.org/2000/svg">
<g clip-path="url(#clip0_31_13035)">
<path d="M34.6836 16C30.2729 16 26.6836 12.4107 26.6836 8C26.6836 3.58933 30.2729 0 34.6836 0C39.0943 0 42.6836 3.58933 42.6836 8C42.6836 12.4107 39.0943 16 34.6836 16ZM34.6836 2.66667C31.7423 2.66667 29.3503 5.05867 29.3503 8C29.3503 10.9413 31.7423 13.3333 34.6836 13.3333C37.6249 13.3333 40.0169 10.9413 40.0169 8C40.0169 5.05867 37.6249 2.66667 34.6836 2.66667Z" fill="#EF632F"/>
<path d="M17.349 64.0002C16.613 64.0002 16.0156 63.4028 16.0156 62.6668V38.6668C16.0156 37.9308 16.613 37.3335 17.349 37.3335C18.085 37.3335 18.6823 37.9308 18.6823 38.6668V62.6668C18.6823 63.4028 18.085 64.0002 17.349 64.0002Z" fill="#EF632F"/>
<path d="M43.991 63.9998C43.255 63.9998 42.6577 63.4025 42.6577 62.6665V58.7038C42.6577 55.7998 43.5084 52.9865 45.1217 50.5678L45.975 49.2878C47.343 47.2345 48.0417 44.8745 47.9964 42.4585C47.807 32.3252 45.9724 25.9518 42.2204 22.4025C41.495 21.7118 40.5164 21.3332 39.4684 21.3332H36.3644C33.239 21.3332 30.335 22.8878 28.599 25.4905L27.2177 27.5625C26.575 28.5252 25.6897 29.3092 24.655 29.8265L16.9404 33.6932C16.3697 33.9785 16.0124 34.5545 16.0124 35.1945C16.0124 35.6905 16.2177 36.1385 16.591 36.4638C16.9644 36.7892 17.439 36.9305 17.927 36.8558L22.2124 36.2425C22.991 36.1305 23.7137 35.7972 24.3004 35.2772L30.2417 30.0078C30.7297 29.5732 31.359 29.3332 32.015 29.3332C33.4844 29.3332 34.6817 30.5305 34.6817 31.9998V62.6665C34.6817 63.4025 34.0844 63.9998 33.3484 63.9998C32.6124 63.9998 32.015 63.4025 32.015 62.6665V31.9998L26.0737 37.2692C25.095 38.1358 23.8924 38.6932 22.5964 38.8798L18.3084 39.4932C17.0657 39.6612 15.799 39.3038 14.847 38.4745C13.895 37.6478 13.3457 36.4505 13.3457 35.1918C13.3457 33.5358 14.2657 32.0478 15.7457 31.3065L23.4604 27.4398C24.0817 27.1278 24.6124 26.6612 24.999 26.0825L26.3804 24.0105C28.6124 20.6638 32.3457 18.6665 36.367 18.6665H39.471C41.2044 18.6665 42.831 19.3038 44.055 20.4638C48.359 24.5385 50.4604 31.5118 50.6657 42.4052C50.7217 45.3678 49.8684 48.2558 48.1964 50.7652L47.343 52.0452C46.023 54.0238 45.327 56.3252 45.327 58.7012V62.6665C45.3244 63.4025 44.727 63.9998 43.991 63.9998Z" fill="#EF632F"/>
</g>
<defs>
<clipPath id="clip0_31_13035">
<rect width="64" height="64" fill="white"/>
</clipPath>
</defs>
</svg>
