<svg width="64" height="64" viewBox="0 0 64 64" fill="none" xmlns="http://www.w3.org/2000/svg">
<g clip-path="url(#clip0_690_11437)">
<path d="M59.9994 2.66667H3.99935C3.26335 2.66667 2.66602 2.06933 2.66602 1.33333C2.66602 0.597333 3.26335 0 3.99935 0H59.9994C60.7354 0 61.3327 0.597333 61.3327 1.33333C61.3327 2.06933 60.7354 2.66667 59.9994 2.66667Z" fill="#EF632F"/>
<path d="M49.3333 32H44.2667C43.5307 32 42.9333 31.4027 42.9333 30.6667C42.9333 29.9307 43.5307 29.3333 44.2667 29.3333H49.3333C51.5387 29.3333 53.3333 27.5387 53.3333 25.3333V2.66667H10.6667V25.3333C10.6667 27.5387 12.4613 29.3333 14.6667 29.3333H19.7333C20.4693 29.3333 21.0667 29.9307 21.0667 30.6667C21.0667 31.4027 20.4693 32 19.7333 32H14.6667C10.992 32 8 29.008 8 25.3333V1.33333C8 0.597333 8.59733 0 9.33333 0H54.6667C55.4027 0 56 0.597333 56 1.33333V25.3333C56 29.008 53.008 32 49.3333 32Z" fill="#EF632F"/>
<path d="M21.334 24C20.9927 24 20.6513 23.8693 20.39 23.6106C19.87 23.0906 19.87 22.2453 20.39 21.7253L27.0567 15.0586C27.462 14.6506 28.0833 14.5493 28.5953 14.808L33.07 17.0453L41.7233 8.39195C42.2433 7.87195 43.0887 7.87195 43.6087 8.39195C44.1287 8.91195 44.1287 9.75729 43.6087 10.2773L34.2753 19.6106C33.8673 20.016 33.2487 20.1146 32.7367 19.8613L28.262 17.624L22.278 23.6106C22.0167 23.8693 21.6753 24 21.334 24Z" fill="#EF632F"/>
<path d="M42.6673 18.6667C41.9313 18.6667 41.334 18.0693 41.334 17.3333V10.6667H34.6673C33.9313 10.6667 33.334 10.0693 33.334 9.33333C33.334 8.59733 33.9313 8 34.6673 8H42.6673C43.4033 8 44.0007 8.59733 44.0007 9.33333V17.3333C44.0007 18.0693 43.4033 18.6667 42.6673 18.6667Z" fill="#EF632F"/>
<path d="M53.3333 45.3333C50.392 45.3333 48 42.9413 48 40C48 37.0586 50.392 34.6666 53.3333 34.6666C56.2747 34.6666 58.6667 37.0586 58.6667 40C58.6667 42.9413 56.2747 45.3333 53.3333 45.3333ZM53.3333 37.3333C51.864 37.3333 50.6667 38.5306 50.6667 40C50.6667 41.4693 51.864 42.6666 53.3333 42.6666C54.8027 42.6666 56 41.4693 56 40C56 38.5306 54.8027 37.3333 53.3333 37.3333Z" fill="#EF632F"/>
<path d="M62.6667 58.6667C61.9307 58.6667 61.3333 58.0693 61.3333 57.3333V54.6667C61.3333 52.4613 59.5387 50.6667 57.3333 50.6667H49.3333C48.5973 50.6667 48 50.0693 48 49.3333C48 48.5973 48.5973 48 49.3333 48H57.3333C61.008 48 64 50.992 64 54.6667V57.3333C64 58.0693 63.4027 58.6667 62.6667 58.6667Z" fill="#EF632F"/>
<path d="M10.6673 45.3333C7.72598 45.3333 5.33398 42.9413 5.33398 40C5.33398 37.0586 7.72598 34.6666 10.6673 34.6666C13.6087 34.6666 16.0007 37.0586 16.0007 40C16.0007 42.9413 13.6087 45.3333 10.6673 45.3333ZM10.6673 37.3333C9.19798 37.3333 8.00065 38.5306 8.00065 40C8.00065 41.4693 9.19798 42.6666 10.6673 42.6666C12.1367 42.6666 13.334 41.4693 13.334 40C13.334 38.5306 12.1367 37.3333 10.6673 37.3333Z" fill="#EF632F"/>
<path d="M1.33333 58.6667C0.597333 58.6667 0 58.0693 0 57.3333V54.6667C0 50.992 2.992 48 6.66667 48H14.6667C15.4027 48 16 48.5973 16 49.3333C16 50.0693 15.4027 50.6667 14.6667 50.6667H6.66667C4.46133 50.6667 2.66667 52.4613 2.66667 54.6667V57.3333C2.66667 58.0693 2.06933 58.6667 1.33333 58.6667Z" fill="#EF632F"/>
<path d="M32 46.6666C27.5893 46.6666 24 43.0773 24 38.6666C24 34.256 27.5893 30.6666 32 30.6666C36.4107 30.6666 40 34.256 40 38.6666C40 43.0773 36.4107 46.6666 32 46.6666ZM32 33.3333C29.0587 33.3333 26.6667 35.7253 26.6667 38.6666C26.6667 41.608 29.0587 44 32 44C34.9413 44 37.3333 41.608 37.3333 38.6666C37.3333 35.7253 34.9413 33.3333 32 33.3333Z" fill="#EF632F"/>
<path d="M45.334 64C44.598 64 44.0007 63.4026 44.0007 62.6666V57.3333C44.0007 55.128 42.206 53.3333 40.0007 53.3333H24.0007C21.7953 53.3333 20.0007 55.128 20.0007 57.3333V62.6666C20.0007 63.4026 19.4033 64 18.6673 64C17.9313 64 17.334 63.4026 17.334 62.6666V57.3333C17.334 53.6586 20.326 50.6666 24.0007 50.6666H40.0007C43.6753 50.6666 46.6673 53.6586 46.6673 57.3333V62.6666C46.6673 63.4026 46.07 64 45.334 64Z" fill="#EF632F"/>
</g>
<defs>
<clipPath id="clip0_690_11437">
<rect width="64" height="64" fill="white"/>
</clipPath>
</defs>
</svg>
