<svg width="64" height="64" viewBox="0 0 64 64" fill="none" xmlns="http://www.w3.org/2000/svg">
<g clip-path="url(#clip0_31_13043)">
<path d="M44 64.0001H41.3333C39.128 64.0001 37.3333 62.2054 37.3333 60.0001V58.6667H24V60.0001C24 62.2054 22.2053 64.0001 20 64.0001H17.3333C15.128 64.0001 13.3333 62.2054 13.3333 60.0001V55.9254C9.528 53.5121 6.84533 49.7281 5.816 45.3334H4C1.79467 45.3334 0 43.5387 0 41.3334V36.0001C0 33.7947 1.79467 32.0001 4 32.0001H8.06933C8.728 30.9627 9.51467 29.9841 10.416 29.0827C11.3227 28.1787 12.3013 27.3921 13.3333 26.7387V17.3334C13.3333 16.9441 13.5013 16.5761 13.7973 16.3227C14.0933 16.0721 14.4827 15.9574 14.8667 16.0161C20.768 16.9121 24.2187 19.5974 25.144 24.0001H28C28.736 24.0001 29.3333 24.5974 29.3333 25.3334C29.3333 26.0694 28.736 26.6667 28 26.6667H24C23.3147 26.6667 22.7413 26.1494 22.6747 25.4694C22.328 22.0614 20.1387 19.9174 16 18.9441V27.4934C16 27.9734 15.7413 28.4187 15.3227 28.6561C14.2507 29.2614 13.232 30.0401 12.3013 30.9707C11.3627 31.9067 10.6053 32.8961 9.984 33.9921C9.74667 34.4081 9.304 34.6667 8.82667 34.6667H4C3.26667 34.6667 2.66667 35.2641 2.66667 36.0001V41.3334C2.66667 42.0694 3.26667 42.6667 4 42.6667H6.90667C7.55733 42.6667 8.11467 43.1361 8.22133 43.7787C8.94667 48.1121 11.5387 51.8427 15.328 54.0134C15.744 54.2534 16 54.6961 16 55.1734V60.0001C16 60.7361 16.6 61.3334 17.3333 61.3334H20C20.7333 61.3334 21.3333 60.7361 21.3333 60.0001V57.3334C21.3333 56.5974 21.9307 56.0001 22.6667 56.0001H38.6667C39.4027 56.0001 40 56.5974 40 57.3334V60.0001C40 60.7361 40.6 61.3334 41.3333 61.3334H44C44.7333 61.3334 45.3333 60.7361 45.3333 60.0001V55.1734C45.3333 54.6934 45.592 54.2481 46.0107 54.0107C47.0827 53.4054 48.1013 52.6267 49.032 51.6961C51.744 49.0107 53.2587 45.4187 53.3093 41.5841C53.32 40.8481 53.848 40.1521 54.6587 40.2667C55.3947 40.2747 55.9867 40.8801 55.976 41.6161C55.92 46.1574 54.1227 50.4081 50.9147 53.5867C50.0133 54.4881 49.0347 55.2747 48.0027 55.9281V60.0001C48 62.2054 46.2053 64.0001 44 64.0001Z" fill="#EF632F"/>
<path d="M60.0007 42.6665H54.6673C53.9313 42.6665 53.334 42.0692 53.334 41.3332C53.334 40.5972 53.9313 39.9998 54.6673 39.9998H60.0007C60.734 39.9998 61.334 39.4025 61.334 38.6665C61.334 37.9305 60.734 37.3332 60.0007 37.3332C59.2647 37.3332 58.6673 36.7358 58.6673 35.9998C58.6673 35.2638 59.2647 34.6665 60.0007 34.6665C62.206 34.6665 64.0007 36.4612 64.0007 38.6665C64.0007 40.8718 62.206 42.6665 60.0007 42.6665Z" fill="#EF632F"/>
<path d="M48 37.3335C47.824 37.3335 47.648 37.2988 47.4827 37.2268C46.848 36.9628 32 30.5442 32 17.4295V6.28551C32 5.71485 32.3653 5.20551 32.9067 5.02151L47.5733 0.0695117C47.8507 -0.0238216 48.152 -0.0238216 48.4267 0.0695117L63.0933 5.02151C63.6347 5.20551 64 5.71485 64 6.28551V17.4295C64 30.5442 49.152 36.9628 48.5173 37.2295C48.352 37.2988 48.176 37.3335 48 37.3335ZM34.6667 7.24285V17.4295C34.6667 27.5228 45.48 33.3175 48 34.5335C50.5173 33.3148 61.3333 27.4988 61.3333 17.4295V7.24285L48 2.74151L34.6667 7.24285Z" fill="#EF632F"/>
<path d="M46.6673 24.0002C46.6433 24.0002 46.6167 24.0002 46.5953 23.9975C46.214 23.9762 45.8647 23.7948 45.6273 23.4988L40.294 16.8322C39.8353 16.2562 39.926 15.4188 40.502 14.9575C41.0807 14.4988 41.9153 14.5922 42.3767 15.1655L46.7767 20.6695L55.0567 12.3895C55.5767 11.8695 56.422 11.8695 56.942 12.3895C57.462 12.9095 57.462 13.7548 56.942 14.2748L47.6087 23.6082C47.3607 23.8615 47.0193 24.0002 46.6673 24.0002Z" fill="#EF632F"/>
</g>
<defs>
<clipPath id="clip0_31_13043">
<rect width="64" height="64" fill="white"/>
</clipPath>
</defs>
</svg>
