<svg width="64" height="64" viewBox="0 0 64 64" fill="none" xmlns="http://www.w3.org/2000/svg">
<g clip-path="url(#clip0_31_12624)">
<path d="M13.4933 56C10.4533 56 7.89867 53.7147 7.55467 50.6853L6.56533 41.3413C6.2 37.9573 5.49333 34.6187 4.46133 31.4213L2.51467 25.3653C0.845333 20.1653 0 14.7707 0 9.33333C0 4.18667 4.18667 0 9.33333 0C13.0613 0 16.68 0.925333 20.584 2.82933C23.7787 4.392 26.8853 4.392 30.08 2.82933C33.9867 0.925333 37.6053 0 41.1467 0C43.8213 0 46.1653 0.970667 47.928 2.736C49.696 4.50133 50.6667 6.84533 50.6667 9.33333C50.6667 13.0693 50.2693 16.7547 49.488 20.288C49.328 21.008 48.6133 21.456 47.8987 21.3013C47.1787 21.1413 46.7253 20.4293 46.8853 19.712C47.624 16.368 48 12.8773 48 9.33333C48 7.55733 47.3067 5.88533 46.0453 4.62133C44.784 3.35733 43.1093 2.66667 41.3333 2.66667C38.0187 2.66667 34.7813 3.504 31.2507 5.224C27.3227 7.14667 23.344 7.144 19.4133 5.224C15.8853 3.504 12.648 2.66667 9.52 2.66667C5.65867 2.66667 2.66667 5.65867 2.66667 9.33333C2.66667 14.4933 3.46933 19.6133 5.056 24.552L7.00267 30.6053C8.088 33.9733 8.83467 37.4907 9.21867 41.056L10.2053 50.392C10.3947 52.064 11.8107 53.3333 13.4933 53.3333C15.0747 53.3333 16.44 52.1947 16.744 50.6267L19.2747 37.0107C19.8213 34.1067 22.368 32 25.3333 32C26.0693 32 26.6667 32.5973 26.6667 33.3333C26.6667 34.0693 26.0693 34.6667 25.3333 34.6667C23.6507 34.6667 22.2053 35.8587 21.896 37.5013L19.3627 51.1253C18.8187 53.952 16.3493 56 13.4933 56Z" fill="#EF632F"/>
<path d="M48 64C47.824 64 47.648 63.9653 47.4827 63.8933C46.848 63.6293 32 57.2107 32 44.096V32.952C32 32.3813 32.3653 31.872 32.9067 31.688L47.5733 26.736C47.8507 26.6427 48.1493 26.6427 48.4267 26.736L63.0933 31.688C63.6347 31.8694 64 32.3787 64 32.952V44.096C64 57.2107 49.152 63.6294 48.5173 63.896C48.352 63.9654 48.176 64 48 64ZM34.6667 33.9093V44.096C34.6667 54.1893 45.48 59.984 48 61.2C50.5173 59.9814 61.3333 54.1653 61.3333 44.096V33.9093L48 29.408L34.6667 33.9093Z" fill="#EF632F"/>
<path d="M46.6672 50.6667C46.6432 50.6667 46.6166 50.6667 46.5926 50.664C46.2139 50.6427 45.8619 50.4613 45.6246 50.1653L40.2912 43.4987C39.8326 42.9227 39.9259 42.0853 40.4992 41.624C41.0752 41.1653 41.9126 41.2587 42.3739 41.832L46.7766 47.336L55.0566 39.056C55.5766 38.536 56.4219 38.536 56.9419 39.056C57.4619 39.576 57.4619 40.4213 56.9419 40.9413L47.6086 50.2747C47.3606 50.528 47.0192 50.6667 46.6672 50.6667Z" fill="#EF632F"/>
</g>
<defs>
<clipPath id="clip0_31_12624">
<rect width="64" height="64" fill="white"/>
</clipPath>
</defs>
</svg>
