<svg width="69" height="56" viewBox="0 0 69 56" fill="none" xmlns="http://www.w3.org/2000/svg">
<path opacity="0.2" d="M38.9922 56V35.9617C38.9922 27.016 41.4479 19.2034 46.3594 12.524C51.2708 5.72523 58.8177 1.55058 69 0V13.0607C63.1302 13.7764 59.237 15.6848 57.3203 18.7859C55.4036 21.8871 54.4453 26.0021 54.4453 31.131L43.8438 28.984H68.6406V56H38.9922ZM0 56V35.9617C0 27.016 2.45573 19.2034 7.36719 12.524C12.2786 5.72523 19.8255 1.55058 30.0078 0V13.0607C24.138 13.7764 20.2448 15.6848 18.3281 18.7859C16.4115 21.8871 15.4531 26.0021 15.4531 31.131L4.85156 28.984H29.6484V56H0Z" fill="#1998D5"/>
</svg>
