<svg width="16" height="17" viewBox="0 0 16 17" fill="none" xmlns="http://www.w3.org/2000/svg">
<path d="M4.19967 15.6373C4.02635 15.6367 3.85524 15.5983 3.69824 15.5248C3.54125 15.4514 3.40215 15.3446 3.29061 15.2119C3.17907 15.0793 3.09776 14.9239 3.05236 14.7566C3.00695 14.5893 2.99853 14.4142 3.02767 14.2433L3.64901 10.6333L1.02701 8.07732C0.867801 7.92229 0.755153 7.72581 0.701809 7.51009C0.648465 7.29437 0.656551 7.06803 0.725155 6.85667C0.793759 6.64531 0.920141 6.45737 1.09001 6.3141C1.25987 6.17083 1.46644 6.07796 1.68634 6.04599L5.31101 5.51932L6.93301 2.23332C7.03155 2.03464 7.18362 1.86744 7.37208 1.75055C7.56054 1.63365 7.7779 1.57172 7.99967 1.57172C8.22144 1.57172 8.43881 1.63365 8.62727 1.75055C8.81573 1.86744 8.9678 2.03464 9.06634 2.23332L10.687 5.51665L14.3117 6.04332C14.5316 6.07519 14.7383 6.16799 14.9082 6.31121C15.0782 6.45444 15.2047 6.64238 15.2733 6.85375C15.342 7.06513 15.3502 7.29151 15.2968 7.50728C15.2435 7.72304 15.1309 7.91958 14.9717 8.07465L12.3503 10.6333L12.9697 14.2427C13.0076 14.4619 12.9834 14.6873 12.8997 14.8935C12.8161 15.0997 12.6764 15.2783 12.4965 15.4091C12.3166 15.54 12.1036 15.6179 11.8817 15.6339C11.6598 15.65 11.4379 15.6036 11.241 15.5L7.99967 13.7947L4.75767 15.5C4.58572 15.5907 4.39411 15.6379 4.19967 15.6373ZM8.55101 12.58L11.6037 14.184L11.0203 10.784C10.988 10.5938 11.0022 10.3987 11.0618 10.2152C11.1213 10.0318 11.2245 9.86552 11.3623 9.73065L13.833 7.32265L10.4203 6.82665C10.2295 6.79907 10.0482 6.72557 9.892 6.61247C9.73582 6.49937 9.60942 6.35004 9.52367 6.17732L7.99967 3.08465L6.47367 6.17732C6.38798 6.35034 6.26155 6.49995 6.10524 6.6133C5.94893 6.72664 5.76742 6.80031 5.57634 6.82798L2.16367 7.32399L4.63034 9.73199C4.76838 9.86662 4.87169 10.0327 4.93137 10.2161C4.99106 10.3995 5.00535 10.5946 4.97301 10.7847L4.38967 14.1847L7.44234 12.5807C7.61304 12.4903 7.80323 12.4431 7.99634 12.4431C8.18946 12.4431 8.37964 12.4903 8.55034 12.5807L8.55101 12.58Z" fill="white"/>
</svg>
