<svg width="64" height="64" viewBox="0 0 64 64" fill="none" xmlns="http://www.w3.org/2000/svg">
<g clip-path="url(#clip0_31_12720)">
<path d="M57.3333 16.0002H49.3333C48.5973 16.0002 48 15.4028 48 14.6668C48 13.9308 48.5973 13.3335 49.3333 13.3335H56V6.66683C56 5.93083 56.5973 5.3335 57.3333 5.3335C58.0693 5.3335 58.6667 5.93083 58.6667 6.66683V14.6668C58.6667 15.4028 58.0693 16.0002 57.3333 16.0002Z" fill="#EF632F"/>
<path d="M32 64C14.3547 64 0 49.6453 0 32C0 14.3547 14.3547 0 32 0C42.1333 0 51.7573 4.88 57.7413 13.0533C58.176 13.648 58.048 14.4827 57.4533 14.9173C56.8587 15.352 56.0213 15.224 55.5893 14.6293C50.1067 7.13867 41.2853 2.66667 32 2.66667C15.8267 2.66667 2.66667 15.8267 2.66667 32C2.66667 48.1733 15.8267 61.3333 32 61.3333C48.1733 61.3333 61.3333 48.1733 61.3333 32C61.3333 30.624 61.2507 29.3787 61.08 28.1893C60.976 27.4613 61.4827 26.7867 62.2107 26.68C62.936 26.576 63.6133 27.08 63.72 27.8107C63.9093 29.1253 64 30.496 64 32C64 49.6453 49.6453 64 32 64Z" fill="#EF632F"/>
<path d="M32 53.3335C31.824 53.3335 31.648 53.2988 31.4827 53.2268C30.848 52.9628 16 46.5442 16 33.4295V22.2855C16 21.7148 16.3653 21.2055 16.9067 21.0215L31.5733 16.0695C31.8507 15.9762 32.1493 15.9762 32.4267 16.0695L47.0933 21.0215C47.6347 21.2055 48 21.7148 48 22.2855V33.4295C48 46.5442 33.152 52.9628 32.5173 53.2295C32.352 53.2988 32.176 53.3335 32 53.3335ZM18.6667 23.2428V33.4295C18.6667 43.5228 29.48 49.3175 32 50.5335C34.5173 49.3148 45.3333 43.4988 45.3333 33.4295V23.2428L32 18.7415L18.6667 23.2428Z" fill="#EF632F"/>
<path d="M30.6672 40.0002C30.6432 40.0002 30.6166 40.0002 30.5926 39.9975C30.2139 39.9762 29.8619 39.7948 29.6246 39.4988L24.2912 32.8322C23.8326 32.2562 23.9259 31.4188 24.4992 30.9575C25.0779 30.4988 25.9126 30.5922 26.3739 31.1655L30.7766 36.6695L39.0566 28.3895C39.5766 27.8695 40.4219 27.8695 40.9419 28.3895C41.4619 28.9095 41.4619 29.7548 40.9419 30.2748L31.6086 39.6082C31.3606 39.8615 31.0192 40.0002 30.6672 40.0002Z" fill="#EF632F"/>
</g>
<defs>
<clipPath id="clip0_31_12720">
<rect width="64" height="64" fill="white"/>
</clipPath>
</defs>
</svg>
