<svg width="240" height="240" viewBox="0 0 240 240" fill="none" xmlns="http://www.w3.org/2000/svg">
<g clip-path="url(#clip0_441_33560)">
<g clip-path="url(#clip1_441_33560)">
<path d="M215 60H185C182.24 60 180 57.76 180 55C180 52.24 182.24 50 185 50H210V25C210 22.24 212.24 20 215 20C217.76 20 220 22.24 220 25V55C220 57.76 217.76 60 215 60Z" fill="#5E6783"/>
<path d="M120 240C53.83 240 0 186.17 0 120C0 53.83 53.83 0 120 0C158 0 194.09 18.3 216.53 48.95C218.16 51.18 217.68 54.31 215.45 55.94C213.22 57.57 210.08 57.09 208.46 54.86C187.9 26.77 154.82 10 120 10C59.35 10 10 59.35 10 120C10 180.65 59.35 230 120 230C180.65 230 230 180.65 230 120C230 114.84 229.69 110.17 229.05 105.71C228.66 102.98 230.56 100.45 233.29 100.05C236.01 99.66 238.55 101.55 238.95 104.29C239.66 109.22 240 114.36 240 120C240 186.17 186.17 240 120 240Z" fill="#5E6783"/>
<path d="M120 200C119.34 200 118.68 199.87 118.06 199.6C115.68 198.61 60 174.54 60 125.36V83.5701C60 81.4301 61.37 79.5201 63.4 78.8301L118.4 60.2601C119.44 59.9101 120.56 59.9101 121.6 60.2601L176.6 78.8301C178.63 79.5201 180 81.4301 180 83.5701V125.36C180 174.54 124.32 198.61 121.94 199.61C121.32 199.87 120.66 200 120 200ZM70 87.1601V125.36C70 163.21 110.55 184.94 120 189.5C129.44 184.93 170 163.12 170 125.36V87.1601L120 70.2801L70 87.1601Z" fill="#5E6783"/>
<path d="M115 150C114.91 150 114.81 150 114.72 149.99C113.3 149.91 111.98 149.23 111.09 148.12L91.0901 123.12C89.3701 120.96 89.7201 117.82 91.8701 116.09C94.0401 114.37 97.1701 114.72 98.9001 116.87L115.41 137.51L146.46 106.46C148.41 104.51 151.58 104.51 153.53 106.46C155.48 108.41 155.48 111.58 153.53 113.53L118.53 148.53C117.6 149.48 116.32 150 115 150Z" fill="#5E6783"/>
</g>
</g>
<defs>
<clipPath id="clip0_441_33560">
<rect width="240" height="240" fill="white"/>
</clipPath>
<clipPath id="clip1_441_33560">
<rect width="240" height="240" fill="white"/>
</clipPath>
</defs>
</svg>
