<svg width="240" height="240" viewBox="0 0 240 240" fill="none" xmlns="http://www.w3.org/2000/svg">
<g clip-path="url(#clip0_441_35823)">
<path d="M180 240C179.34 240 178.68 239.87 178.06 239.61C175.68 238.6 120 214.54 120 165.36V123.57C120 121.42 121.37 119.52 123.4 118.83L178.4 100.26C179.44 99.91 180.57 99.91 181.6 100.26L236.6 118.83C238.63 119.51 240 121.42 240 123.57V165.36C240 214.54 184.32 238.6 181.94 239.61C181.32 239.87 180.66 240 180 240ZM130 127.17V165.36C130 203.2 170.55 224.94 180 229.49C189.44 224.93 230 203.1 230 165.36V127.17L180 110.28L130 127.17Z" fill="#5E6783"/>
<path d="M174.999 190C174.909 190 174.809 190 174.729 189.99C173.299 189.91 171.989 189.24 171.099 188.12L151.099 163.12C149.379 160.96 149.719 157.82 151.879 156.09C154.059 154.38 157.199 154.73 158.909 156.87L175.409 177.5L206.459 146.46C208.409 144.51 211.579 144.51 213.529 146.46C215.479 148.41 215.479 151.58 213.529 153.53L178.529 188.53C177.599 189.47 176.319 190 174.999 190Z" fill="#5E6783"/>
<path d="M95 210H25C11.21 210 0 198.79 0 185V55C0 41.21 11.21 30 25 30H45C47.76 30 50 32.24 50 35C50 37.76 47.76 40 45 40H25C16.73 40 10 46.73 10 55V185C10 193.27 16.73 200 25 200H95C97.76 200 100 202.24 100 205C100 207.76 97.76 210 95 210Z" fill="#5E6783"/>
<path d="M165 85C162.24 85 160 82.76 160 80V55C160 46.73 153.27 40 145 40H125C122.24 40 120 37.76 120 35C120 32.24 122.24 30 125 30H145C158.79 30 170 41.21 170 55V80C170 82.76 167.76 85 165 85Z" fill="#5E6783"/>
<path d="M115 60H55C46.73 60 40 53.27 40 45V25C40 22.24 42.24 20 45 20H60.5C62.82 8.6 72.93 0 85 0C97.07 0 107.18 8.6 109.5 20H125C127.76 20 130 22.24 130 25V45C130 53.27 123.27 60 115 60ZM50 30V45C50 47.75 52.25 50 55 50H115C117.75 50 120 47.75 120 45V30H105C102.24 30 100 27.76 100 25C100 16.73 93.27 10 85 10C76.73 10 70 16.73 70 25C70 27.76 67.76 30 65 30H50Z" fill="#5E6783"/>
<path d="M135 90H35C32.24 90 30 87.76 30 85C30 82.24 32.24 80 35 80H135C137.76 80 140 82.24 140 85C140 87.76 137.76 90 135 90Z" fill="#5E6783"/>
<path d="M95 120H35C32.24 120 30 117.76 30 115C30 112.24 32.24 110 35 110H95C97.76 110 100 112.24 100 115C100 117.76 97.76 120 95 120Z" fill="#5E6783"/>
<path d="M95 150H35C32.24 150 30 147.76 30 145C30 142.24 32.24 140 35 140H95C97.76 140 100 142.24 100 145C100 147.76 97.76 150 95 150Z" fill="#5E6783"/>
</g>
<defs>
<clipPath id="clip0_441_35823">
<rect width="240" height="240" fill="white"/>
</clipPath>
</defs>
</svg>
