<svg width="64" height="64" viewBox="0 0 64 64" fill="none" xmlns="http://www.w3.org/2000/svg">
<g clip-path="url(#clip0_690_11469)">
<path d="M45.3327 37.3333C35.0393 37.3333 26.666 28.9573 26.666 18.6667C26.666 8.376 35.0393 0 45.3327 0C55.626 0 63.9994 8.376 63.9994 18.6667C63.9994 28.9573 55.626 37.3333 45.3327 37.3333ZM45.3327 2.66667C36.5087 2.66667 29.3327 9.84267 29.3327 18.6667C29.3327 27.4907 36.5087 34.6667 45.3327 34.6667C54.1567 34.6667 61.3327 27.4907 61.3327 18.6667C61.3327 9.84267 54.1567 2.66667 45.3327 2.66667Z" fill="#EF632F"/>
<path d="M46.666 28H39.9993C39.2633 28 38.666 27.4027 38.666 26.6667C38.666 25.9307 39.2633 25.3334 39.9993 25.3334H46.666C48.1353 25.3334 49.3327 24.1387 49.3327 22.6667C49.3327 21.1947 48.1353 20 46.666 20H43.9993C41.058 20 38.666 17.608 38.666 14.6667C38.666 11.7254 41.058 9.33337 43.9993 9.33337H50.666C51.402 9.33337 51.9993 9.93071 51.9993 10.6667C51.9993 11.4027 51.402 12 50.666 12H43.9993C42.53 12 41.3327 13.1947 41.3327 14.6667C41.3327 16.1387 42.53 17.3334 43.9993 17.3334H46.666C49.6073 17.3334 51.9993 19.7254 51.9993 22.6667C51.9993 25.608 49.6073 28 46.666 28Z" fill="#EF632F"/>
<path d="M45.3333 32C44.5973 32 44 31.4027 44 30.6667V26.6667C44 25.9307 44.5973 25.3334 45.3333 25.3334C46.0693 25.3334 46.6667 25.9307 46.6667 26.6667V30.6667C46.6667 31.4027 46.0693 32 45.3333 32Z" fill="#EF632F"/>
<path d="M45.3333 12C44.5973 12 44 11.4027 44 10.6667V6.66671C44 5.93071 44.5973 5.33337 45.3333 5.33337C46.0693 5.33337 46.6667 5.93071 46.6667 6.66671V10.6667C46.6667 11.4027 46.0693 12 45.3333 12Z" fill="#EF632F"/>
<path d="M9.33333 58.6667H1.33333C0.597333 58.6667 0 58.0693 0 57.3333V33.3333C0 32.5973 0.597333 32 1.33333 32C10.4027 32 15.1947 35.056 15.3947 35.1867C15.872 35.4987 16.0987 36.08 15.96 36.632L10.6267 57.6613C10.4747 58.2533 9.944 58.6667 9.33333 58.6667ZM2.66667 56H8.296L13.12 36.9867C11.6187 36.2693 8.08267 34.8907 2.66667 34.6907V56Z" fill="#EF632F"/>
<path d="M34.6676 64C28.3743 64 16.2063 58.7093 9.51029 55.552C8.84363 55.24 8.56096 54.4426 8.87296 53.7786C9.18496 53.1093 9.98229 52.8293 10.649 53.1413C15.8756 55.6053 28.6756 61.3333 34.6676 61.3333C41.153 61.3333 56.441 53.7146 60.8383 51.4506C60.145 50.544 58.713 49.3333 56.001 49.3333C53.5396 49.3333 50.4196 50.3173 47.401 51.272C44.193 52.2826 40.873 53.3333 38.001 53.3333C32.497 53.3333 25.1876 50.6986 24.8783 50.5866C24.1876 50.336 23.8303 49.5706 24.081 48.8773C24.3343 48.1866 25.097 47.8266 25.7903 48.08C25.8596 48.1066 32.969 50.6666 38.001 50.6666C40.4623 50.6666 43.5823 49.6826 46.601 48.728C49.809 47.7173 53.129 46.6666 56.001 46.6666C62.2223 46.6666 63.865 51.3786 63.9316 51.5786C64.137 52.1946 63.8703 52.8693 63.2943 53.1786C62.465 53.616 42.905 64 34.6676 64Z" fill="#EF632F"/>
<path d="M43.9994 52.24C43.2634 52.24 42.666 51.6426 42.666 50.9066V49.5733C42.666 47.712 41.4127 46.1173 39.6154 45.7013L13.8714 39.4853C13.154 39.312 12.714 38.592 12.8874 37.8746C13.0607 37.1546 13.794 36.736 14.4954 36.8906L40.2287 43.104C43.2314 43.8053 45.3327 46.4666 45.3327 49.5733V50.9066C45.3327 51.6426 44.7354 52.24 43.9994 52.24Z" fill="#EF632F"/>
</g>
<defs>
<clipPath id="clip0_690_11469">
<rect width="64" height="64" fill="white"/>
</clipPath>
</defs>
</svg>
