<svg width="240" height="240" viewBox="0 0 240 240" fill="none" xmlns="http://www.w3.org/2000/svg">
<g clip-path="url(#clip0_441_29746)">
<path d="M225 200H15C6.73 200 0 193.27 0 185V55C0 46.73 6.73 40 15 40H45C47.76 40 50 42.24 50 45C50 47.76 47.76 50 45 50H15C12.24 50 10 52.25 10 55V185C10 187.75 12.24 190 15 190H225C227.76 190 230 187.75 230 185V55C230 52.25 227.76 50 225 50H195C192.24 50 190 47.76 190 45C190 42.24 192.24 40 195 40H225C233.27 40 240 46.73 240 55V185C240 193.27 233.27 200 225 200Z" fill="#5E6783"/>
<path d="M165 240H75C72.24 240 70 237.76 70 235C70 232.24 72.24 230 75 230H165C167.76 230 170 232.24 170 235C170 237.76 167.76 240 165 240Z" fill="#5E6783"/>
<path d="M105 240C102.24 240 100 237.76 100 235V195C100 192.24 102.24 190 105 190C107.76 190 110 192.24 110 195V235C110 237.76 107.76 240 105 240Z" fill="#5E6783"/>
<path d="M135 240C132.24 240 130 237.76 130 235V195C130 192.24 132.24 190 135 190C137.76 190 140 192.24 140 195V235C140 237.76 137.76 240 135 240Z" fill="#5E6783"/>
<path d="M119.97 120C119.25 120 118.53 119.84 117.87 119.53L62.9 93.99C61.13 93.17 60 91.41 60 89.46V30.54C60 28.83 60.87 27.24 62.31 26.32C63.75 25.41 65.57 25.29 67.1 26.01L122.07 51.55C123.84 52.37 124.97 54.14 124.97 56.08V115C124.97 116.71 124.1 118.3 122.66 119.22C121.84 119.74 120.9 120 119.97 120ZM70 86.27L114.97 107.17V59.27L70 38.37V86.27Z" fill="#5E6783"/>
<path d="M120.03 120C119.09 120 118.15 119.74 117.34 119.22C115.9 118.3 115.03 116.71 115.03 115V56.0701C115.03 54.1301 116.16 52.3601 117.93 51.5401L172.9 26.0001C174.45 25.2901 176.26 25.4001 177.69 26.3101C179.13 27.2401 180 28.8301 180 30.5401V89.4701C180 91.4101 178.87 93.1801 177.1 94.0001L122.13 119.54C121.47 119.84 120.75 120 120.03 120ZM125.03 59.2701V107.17L170 86.2701V38.3701L125.03 59.2701Z" fill="#5E6783"/>
<path d="M175 35.54C174.3 35.54 173.58 35.39 172.9 35.07L120.04 10.52L67.1 35.07C64.6 36.26 61.63 35.15 60.46 32.65C59.3 30.14 60.39 27.17 62.9 26.01L117.93 0.470005C119.27 -0.149995 120.81 -0.149995 122.14 0.470005L177.11 26.01C179.61 27.17 180.7 30.14 179.54 32.65C178.69 34.46 176.88 35.54 175 35.54Z" fill="#5E6783"/>
<path d="M150 69.9999C147.24 69.9999 145 67.7599 145 64.9999V45.3999L93.45 20.8099C90.96 19.6199 89.9 16.6399 91.09 14.1499C92.27 11.6499 95.26 10.5799 97.76 11.7899L151.82 37.5699C153.66 38.3199 155 40.1099 155 42.1999V64.9999C155 67.7599 152.76 69.9999 150 69.9999Z" fill="#5E6783"/>
</g>
<defs>
<clipPath id="clip0_441_29746">
<rect width="240" height="240" fill="white"/>
</clipPath>
</defs>
</svg>
