<svg width="263" height="196" viewBox="0 0 263 196" fill="none" xmlns="http://www.w3.org/2000/svg">
<path d="M218.173 -1.49424e-06C223.955 16.4083 228.411 32.2769 231.379 47.3836C257.034 177.991 161.703 202.178 18.4512 101.407C12.2862 97.07 6.13298 92.5725 -0.000186949 87.9257C12.0245 99.7623 24.433 111.063 37.133 121.672C153.075 218.524 249.404 221.055 252.291 127.326C253.393 91.5437 240.718 46.9059 218.173 -1.49424e-06Z" fill="url(#paint0_linear_466_21529)"/>
<path d="M185.654 140.955C166.747 148.189 140.323 149.72 111.31 143.81C82.4176 137.924 56.5972 125.806 38.5176 111.117C47.8024 127.224 68.4263 142.174 95.524 150.368C131.643 161.29 167.996 156.803 185.654 140.955Z" fill="url(#paint1_linear_466_21529)"/>
<path d="M174.306 188.645C192.795 185.722 209.102 178.065 221.708 165.343C257.404 129.322 252.868 63.3627 215.488 2.25488C265.075 63.0098 278.066 134.596 243.119 169.861C226.587 186.544 202 192.4 174.306 188.645Z" fill="url(#paint2_linear_466_21529)"/>
<defs>
<linearGradient id="paint0_linear_466_21529" x1="252.357" y1="98" x2="-0.000187389" y2="98" gradientUnits="userSpaceOnUse">
<stop stop-color="#0C609D"/>
<stop offset="1" stop-color="#0C609D" stop-opacity="0"/>
</linearGradient>
<linearGradient id="paint1_linear_466_21529" x1="185.654" y1="133.743" x2="38.5176" y2="133.743" gradientUnits="userSpaceOnUse">
<stop stop-color="#1998D5"/>
<stop offset="1" stop-color="#1998D5" stop-opacity="0"/>
</linearGradient>
<linearGradient id="paint2_linear_466_21529" x1="262.814" y1="266.865" x2="222.997" y2="20.6305" gradientUnits="userSpaceOnUse">
<stop offset="0.015625" stop-color="#F26322"/>
<stop offset="1" stop-color="#FFC643" stop-opacity="0"/>
</linearGradient>
</defs>
</svg>
