<svg width="672" height="491" viewBox="0 0 672 491" fill="none" xmlns="http://www.w3.org/2000/svg">
<path d="M669.871 96.1739C666.724 76.0838 658.48 58.3647 644.783 44.6662C605.998 5.87867 534.979 10.8082 469.184 51.4251C534.599 -2.45681 611.677 -16.572 649.647 21.4017C667.609 39.3655 673.915 66.0811 669.871 96.1739Z" fill="url(#paint0_linear_463_21168)"/>
<path d="M557.854 133.352C505.018 79.7755 318.808 170.309 141.932 335.568C86.2594 387.591 38.1477 440.808 0 491C40.9105 418.442 116.585 329.281 213.887 244.707C392.316 89.6259 575.894 8.70528 623.924 63.9739C659.244 104.61 611.426 207.578 512.693 320.902C568.186 234.897 588.016 163.95 557.854 133.36V133.352Z" fill="url(#paint1_linear_463_21168)"/>
<path d="M539.333 221.183C555.104 186.894 555.582 160.478 542.232 143.805C503.781 95.8059 346.562 157.535 191.089 281.694C110.401 346.132 46.049 414.711 8.17383 472.493C47.0542 422.331 104.106 367.686 173.191 317.484C330.518 203.137 514.057 120.078 539.343 221.174L539.333 221.183Z" fill="url(#paint2_linear_463_21168)"/>
<path d="M269.68 184.405C234.45 206.863 196.987 235.109 159.884 267.97C95.8337 324.698 45.3107 384.147 15.9043 433.811C16.6854 432.796 17.4707 431.779 18.2602 430.761C32.8621 410.37 50.654 389.068 71.1615 367.626C108.612 325.966 151.92 283.315 199.861 241.647C223.138 221.417 246.492 202.3 269.68 184.405Z" fill="url(#paint3_linear_463_21168)"/>
<defs>
<linearGradient id="paint0_linear_463_21168" x1="754.091" y1="-1.51685e-05" x2="488.846" y2="42.5009" gradientUnits="userSpaceOnUse">
<stop stop-color="#FFC643"/>
<stop offset="1" stop-color="#FFC643" stop-opacity="0"/>
</linearGradient>
<linearGradient id="paint1_linear_463_21168" x1="459.375" y1="-60.4919" x2="115.211" y2="465.518" gradientUnits="userSpaceOnUse">
<stop stop-color="#0C609D"/>
<stop offset="1" stop-color="#0C609D" stop-opacity="0"/>
</linearGradient>
<linearGradient id="paint2_linear_463_21168" x1="484.305" y1="65.8058" x2="21.7577" y2="417.571" gradientUnits="userSpaceOnUse">
<stop stop-color="#1998D5"/>
<stop offset="1" stop-color="#1998D5" stop-opacity="0"/>
</linearGradient>
<linearGradient id="paint3_linear_463_21168" x1="244.809" y1="184.746" x2="99.3001" y2="342.096" gradientUnits="userSpaceOnUse">
<stop stop-color="#F26322"/>
<stop offset="1" stop-color="#F26322" stop-opacity="0"/>
</linearGradient>
</defs>
</svg>
