<svg width="16" height="17" viewBox="0 0 16 17" fill="none" xmlns="http://www.w3.org/2000/svg">
<path d="M9.33324 15.8333C9.20935 15.8334 9.0879 15.7989 8.98251 15.7338C8.87711 15.6687 8.79195 15.5755 8.73657 15.4647L6.16991 10.3313L1.03657 7.76466C0.921389 7.70732 0.825257 7.61788 0.759777 7.50712C0.694298 7.39636 0.662269 7.26902 0.667555 7.14046C0.672841 7.0119 0.715217 6.88762 0.789568 6.78261C0.86392 6.6776 0.96707 6.59635 1.08657 6.54866L14.4199 1.21533C14.5411 1.16683 14.6738 1.15496 14.8016 1.18119C14.9295 1.20741 15.0468 1.27057 15.1391 1.36285C15.2313 1.45513 15.2945 1.57245 15.3207 1.70029C15.3469 1.82812 15.3351 1.96084 15.2866 2.082L9.95324 15.4153C9.90553 15.5347 9.82433 15.6377 9.71941 15.712C9.6145 15.7863 9.49035 15.8287 9.36191 15.834L9.33324 15.8333ZM2.95924 7.23333L6.96457 9.23333C7.09387 9.29788 7.19869 9.4027 7.26324 9.532L9.26324 13.5373L13.4666 3.03333L2.95924 7.23333Z" fill="#C0DEEC"/>
</svg>
