<svg width="240" height="240" viewBox="0 0 240 240" fill="none" xmlns="http://www.w3.org/2000/svg">
<g clip-path="url(#clip0_441_29783)">
<path d="M110.2 220H4.9996C3.4596 220 2.0096 219.29 1.0596 218.08C0.109596 216.86 -0.230404 215.29 0.139596 213.79L5.5396 192.09C8.2596 181.3 16.1496 172.8 26.6296 169.35L66.8096 155.96C72.7696 153.47 76.4896 144.49 76.8696 131.25C72.2696 127.07 62.3996 116.87 62.3996 106.41C62.3996 102.74 61.1696 101.99 61.1596 101.98C59.6396 101.57 58.8396 100.63 58.2496 99.16C57.7496 97.9 53.3996 86.74 53.3996 79.2C53.3996 78.8 53.4496 78.4 53.5496 78.01C54.1796 75.42 55.6996 72.82 57.9896 71.24C58.0496 70.04 58.1196 68.71 58.1996 67.23C58.4496 62.29 58.7996 55.7 58.7996 47.5C58.7996 28.74 81.7396 0 110 0C135.57 0 147.95 13.62 150 22.42C156.25 25.88 161.7 31.59 161.7 47.5V71.27C164.18 72.98 165.71 75.72 166.35 77.61C166.52 78.12 166.6 78.66 166.6 79.2C166.6 81.96 164.36 84.4 161.6 84.4C159.09 84.4 157.02 82.72 156.66 80.35C156.47 80 156.23 79.65 156.07 79.53C153.32 79.53 151.69 77.46 151.69 74.7V47.5C151.69 34.45 147.5 32.34 145 31.09C143.49 30.32 140.3 28.72 140.3 24.9C140.12 21.89 131.7 10 110 10C86.1996 10 68.7996 34.66 68.7996 47.5C68.7996 55.92 68.4496 62.68 68.1696 67.75C68.0296 70.64 67.8996 72.97 67.8996 74.7C67.8996 77.29 65.9296 79.42 63.4096 79.68C63.5696 83.78 65.6196 90.21 66.9296 93.8C69.6096 95.7 72.3996 99.58 72.3996 106.4C72.3996 112.04 78.9796 120.07 85.0996 125.15C86.2396 126.1 86.8996 127.51 86.8996 129C86.8996 147.98 81.0096 160.88 70.3096 165.32L29.7796 178.85C22.5396 181.24 17.1096 187.1 15.2396 194.53L11.3996 210H110.2C112.96 210 115.2 212.24 115.2 215C115.2 217.76 112.96 220 110.2 220Z" fill="#5E6783"/>
<path d="M180 240C179.34 240 178.68 239.87 178.06 239.6C175.68 238.61 120 214.54 120 165.36V123.57C120 121.43 121.37 119.52 123.4 118.83L178.4 100.26C179.44 99.91 180.57 99.91 181.6 100.26L236.6 118.83C238.63 119.51 240 121.42 240 123.57V165.36C240 214.54 184.32 238.61 181.94 239.61C181.32 239.87 180.66 240 180 240ZM130 127.16V165.36C130 203.21 170.55 224.94 180 229.5C189.44 224.93 230 203.12 230 165.36V127.16L180 110.28L130 127.16Z" fill="#5E6783"/>
<path d="M175 190C174.91 190 174.81 190 174.73 189.99C173.3 189.91 171.99 189.23 171.1 188.12L151.1 163.12C149.38 160.96 149.72 157.82 151.88 156.09C154.05 154.37 157.19 154.73 158.91 156.87L175.41 177.51L206.46 146.46C208.41 144.51 211.58 144.51 213.53 146.46C215.48 148.41 215.48 151.58 213.53 153.53L178.53 188.53C177.6 189.48 176.32 190 175 190Z" fill="#5E6783"/>
</g>
<defs>
<clipPath id="clip0_441_29783">
<rect width="240" height="240" fill="white"/>
</clipPath>
</defs>
</svg>
