<svg width="1920" height="522" viewBox="0 0 1920 522" fill="none" xmlns="http://www.w3.org/2000/svg">
<path d="M2678 566.969C2668.38 478.072 2655 389.437 2640.57 300.861H2636.08V273.321C2632.37 250.747 2628.61 228.201 2624.87 205.626H2613.17V187.958H2604.56V145.115H2598.83V190.031H2593.12V196.164H2571.08V192.747H2537.59V145.145H2530.9V194.12H2523.25V211.146H2507.93V206.386H2504.1V245.519H2496.92L2488.78 251.302H2441.91V237.722H2435.21V252.703H2382.55V288.07H2327.07V294.202H2318.47V309.184H2298.37V197.595L2264.88 191.462V66.9652H2262.01V58.1162L2230.43 54.7286L2195.99 58.8173L2160.59 56.1011L2131.88 60.1898V195.58L2103.17 199.669V286.055H2061.08V267.013L2027.57 264.297V167.69H2018.99V159.542H2012.3V154.081H2005.58V145.261H1996.98V137.114H1955.84V147.977H1943.41V154.782H1935.76V168.391H1927.19V262.983H1923.31V371.155H1916.65V360.291H1860.21V278.637H1854.48V270.459H1846.8V262.312H1839.18V248.732L1823.86 248.031V241.927L1831.51 241.255L1816.18 226.244L1717.66 220.812L1687.97 225.573L1674.58 242.599H1681.3V248.732H1660.24V256.909L1653.52 261.64V268.444H1647.82L1644.95 282.725H1632.52L1631.56 267.773L1563.66 263.684H1537.82V258.281H1518.67V261.669H1506.28V253.521H1453.73V252.441L1441.04 253.58H1437.36V253.901L1395.61 257.61L1396.66 236.028L1393.5 233.224V228.347H1377.62V233.224H1342.63V236.7H1323.57V252.002L1318.27 255.507V263.158H1287.53V272.913H1270.59L1256.83 256.909V250.63H1250.45V233.925L1244.11 229.778L1236.17 234.976V210.27L1156.16 206.765V200.516L1116.94 198.442L1086.23 204.692L1085.19 210.941L1009.93 222.097V270.138L967.545 271.54L919.862 277.118V362.044H907.116V350.917H888.055V332.109H883.825V327.933H868.993V314.003H857.377V316.076H851.003V329.306H827.713V376.646H807.58V302.175H804.393V291.72L783.188 275.015V270.138H775.801V273.614L756.74 289.617V302.146H751.467V297.97H731.334V301.445H723.918V296.568H717.545V311.871H703.785V254.777H688.953V245.052H669.863L660.332 238.773H626.41V271.482H618.965V268.006H605.204V271.482L553.293 278.432V315.346L520.413 268.707L465.315 298.612H445.181V294.436H409.174V299.985H386.926V330.62H379.51V313.915L363.605 324.37H356.161V305.563H349.817V323.669H338.171V335.526H308.508V328.547H301.062V322.998H283.073V331.35L278.322 328.225V254.777H209.985V249.9H182.407V254.047H169.719L168.646 134.339H165.489L159.116 268.006H130.524V158.724L94.4868 123.242L92.3718 87.0284H88.1716L84.9851 122.541L43.125 150.022L38.3745 179.605L35.1587 181.679L25.6572 329.218H-29.4412L-31.5559 332.723H-40.0439V290.961H-46.4167L-32.6567 11.857L-39.03 9.05333L-70.8086 4.87716V0.00012207H-132.28L-135.467 3.50465H-158.757L-177.877 16.0332L-190.565 263.83L-204.354 267.305H-218.143V299.342L-221.33 301.416V295.867H-281.729V216.52H-291.26V208.138L-290.188 132.996H-294.447L-301.863 208.839H-331.556L-329.412 132.295H-332.598L-341.086 213.716L-348.502 214.417L-353.774 217.892L-360.119 273.584H-370.721V270.109H-388.74V271.511H-425.82V284.039H-479.846V300.043H-508.467V308.425H-540.246L-623.589 466.857L-712.32 298.203H-744.098V289.822H-772.719V273.818H-826.746V261.289H-863.826V259.917H-881.844V263.392H-892.447L-898.791 207.7L-904.063 204.195L-911.479 203.524L-919.938 122.103H-923.125L-921.01 198.646H-950.674L-961.277 197.946V206.298H-970.836V285.646H-1031.24V291.224L-1034.42 289.15V257.113H-1048.21L-1062 253.638L-1206.12 280.798H-1212.49V322.56H-1220.98L-1223.1 319.055H-1278.19L-1287.72 171.516L-1290.91 169.442L-1295.69 139.859L-1337.58 112.378L-1347.11 113.049L-1383.15 148.532V257.814H-1411.74L-1418.11 124.147H-1421.27L-1422.37 243.855H-1435.06V239.678H-1462.61V244.555H-1530.97V318.004L-1535.73 321.129V312.776H-1553.74V318.354H-1561.16V325.305H-1590.85V313.477H-1602.5V295.371H-1608.84V314.149H-1616.26L-1632.13 303.723V320.428H-1639.58V289.793H-1661.83V284.215H-1697.83V288.391H-1717.97L-1773.09 258.457L-1805.97 305.096V268.182L-1857.86 261.202V257.727H-1871.65V261.202H-1879.06V228.493H-1912.96L-1922.49 234.772H-1941.58V244.497H-1956.41V301.591H-1970.2V286.259H-1976.57V291.136H-1984.02V287.661H-2004.15V291.837H-2009.42V279.308L-2028.48 263.304V259.829H-2035.9V264.706L-2057.1 281.411V291.866H-2060.26V366.307H-2080.42V318.997H-2103.74V305.767H-2110.12V303.694H-2121.76V317.624H-2136.62V321.771H-2140.88V340.579H-2159.94V351.705H-2172.66V266.78L-2220.34 261.202L-2262.72 259.829V211.788L-2337.96 200.632L-2339.03 194.383L-2369.76 188.104L-2408.96 190.177V196.456L-2488.97 199.931V224.638L-2496.94 219.411L-2503.31 223.587V240.292H-2509.65V246.571L-2523.41 262.574H-2540.39V252.82H-2571.12V245.169L-2576.4 241.664V226.361H-2595.46V222.886H-2630.42V218.009H-2646.3V222.886L-2649.48 225.66L-2648.44 247.213L-2683.75 244.088V217.571H-2688.53V193.098H-2706.76V175.429H-2715.36V132.558H-2721.07V177.473H-2726.8V183.606H-2748.82V180.19H-2782.31V132.587H-2789V181.562H-2796.65V198.588H-2811.94V193.799H-2815.74V232.932H-2822.92L-2831.06 238.715H-2877.9V225.106H-2884.62V240.058H-2937.29V275.453H-2992.79V281.557H-3001.4V296.539H-3021.5V184.95L-3054.96 178.846V54.3197H-3057.83V45.471L-3089.4 42.0832L-3123.85 46.1718L-3159.25 43.4266L-3187.92 47.5151V182.906L-3216.66 186.994V273.409H-3258.75V254.368L-3292.21 251.652V155.045H-3300.82V146.868H-3307.51V141.436H-3314.2V132.587H-3322.8V124.439H-3333C-3332.68 125.519 -3332.33 126.6 -3332.04 127.68C-3311.91 204.195 -3297.28 282.667 -3296.73 360.7C-3296.41 406.551 -3299.69 452.343 -3299.98 498.164C-3300.15 524.594 -3304.29 550.235 -3311.88 575H-2509.28V546.672L-667.273 549.68L-672.749 560.106L1437.39 556.66V567.232H2678V566.969Z" fill="#D7EEF9"/>
</svg>
