<svg width="375" height="186" viewBox="0 0 375 186" fill="none" xmlns="http://www.w3.org/2000/svg">
<g clip-path="url(#clip0_564_58183)">
<path d="M1371 220.494C1366.8 181.689 1360.95 142.998 1354.65 104.332H1352.69V92.3106C1351.07 82.4562 1349.42 72.6146 1347.79 62.7602H1342.68V55.0476H1338.92V36.3459H1336.41V55.9527H1333.92V58.6298H1324.29V57.1383H1309.66V36.3587H1306.74V57.7374H1303.39V65.1697H1296.7V63.0917H1295.03V80.1744H1291.89L1288.33 82.6985H1267.86V76.7705H1264.93V83.3104H1241.93V98.7485H1217.69V101.426H1213.93V107.965H1205.15V59.2545L1190.52 56.5774V2.23163H1189.27V-1.63112L1175.47 -3.10988L1160.43 -1.3251L1144.96 -2.51075L1132.42 -0.725969V58.3748L1119.88 60.1596V97.8689H1101.49V89.557L1086.85 88.3715V46.2003H1083.1V42.6435H1080.18V40.2596H1077.24V36.4096H1073.48V32.8529H1055.51V37.5952H1050.08V40.5656H1046.74V46.5062H1043V87.7978H1041.3V135.017H1038.39V130.275H1013.74V94.6308H1011.23V91.0613H1007.88V87.5046H1004.55V81.5766L997.855 81.2707V78.6063L1001.2 78.3131L994.501 71.7605L951.46 69.3893L938.488 71.4673L932.641 78.8995H935.577V81.5766H926.377V85.1461L923.441 87.2113V90.1817H920.948L919.695 96.4156H914.266L913.848 89.8885L884.184 88.1037H872.895V85.7453H864.53V87.2241H859.114V83.6674H836.156V83.1957L830.614 83.6929H829.006V83.8331L810.77 85.4521L811.225 76.0312L809.846 74.8073V72.6784H802.911V74.8073H787.623V76.3244H779.296V83.0044L776.98 84.5342V87.8743H763.552V92.1322H756.149L750.138 85.1461V82.4053H747.353V75.1133L744.582 73.303L741.114 75.5722V64.7872L706.16 63.2574V60.5293L689.025 59.6242L675.61 62.3523L675.154 65.0804L642.276 69.9502V90.9211L623.761 91.533L602.93 93.9679V131.04H597.361V126.183H589.034V117.973H587.186V116.15H580.707V110.069H575.632V110.974H572.848V116.749H562.673V137.414H553.877V104.906H552.485V100.342L543.222 93.05V90.9211H539.994V92.4381L531.667 99.4242V104.893H529.364V103.07H520.568V104.587H517.328V102.458H514.544V109.138H508.533V84.2155H502.053V79.9703H493.714L489.55 77.2295H474.73V91.5075H471.478V89.9904H465.467V91.5075L442.788 94.5416V110.655L428.424 90.2965L404.354 103.351H395.558V101.528H379.827V103.95H370.108V117.323H366.868V110.031L359.92 114.595H356.668V106.385H353.896V114.289H348.809V119.464H335.85V116.418H332.597V113.995H324.738V117.641L322.663 116.277V84.2155H292.809V82.0866H280.761V83.8968H275.218L274.749 31.6418H273.37L270.586 89.9904H258.095V42.2866L242.352 26.7975L241.428 10.9897H239.593L238.201 26.4915L219.913 38.4876L217.838 51.4016L216.433 52.3067L212.282 116.711H188.212L187.288 118.241H183.58V100.011H180.796L186.807 -21.8243L184.023 -23.0481L170.14 -24.8711V-27.0001H143.285L141.893 -25.4703H131.718L123.365 -20.0013L117.822 88.1674L111.798 89.6845H105.774V103.669L104.382 104.574V102.152H77.9956V67.5154H73.8319V63.8566L74.3002 31.0554H72.4398L69.2 64.1626H56.2281L57.1647 30.7494H55.7726L52.0647 66.2915L48.8248 66.5975L46.5216 68.1145L43.75 92.4254H39.1182V90.9083H31.2465V91.5202H15.0475V96.9893H-8.55493V103.975H-21.0583V107.634H-34.9414L-71.3511 176.793L-110.115 103.172H-123.998V99.5134H-136.501V92.5274H-160.104V87.0584H-176.302V86.4592H-184.174V87.9763H-188.806L-191.578 63.6654L-193.881 62.1356L-197.121 61.8424L-200.816 26.3003H-202.208L-201.284 59.7134H-214.243L-218.875 59.4074V63.0535H-223.052V97.6904H-249.438V100.125L-250.83 99.2202V85.2354H-256.854L-262.878 83.7183L-325.839 95.5742H-328.623V113.804H-332.331L-333.255 112.274H-357.326L-361.489 47.8703L-362.881 46.9651L-364.969 34.0513L-383.269 22.0551L-387.433 22.3483L-403.176 37.8374V85.5413H-415.667L-418.451 27.1927H-419.831L-420.312 79.4477H-425.855V77.6247H-437.89V79.7536H-467.757V111.815L-469.832 113.179V109.533H-477.704V111.968H-480.944V115.003H-493.916V109.839H-499.003V101.936H-501.775V110.133H-505.014L-511.95 105.582V112.874H-515.202V99.5006H-524.921V97.0658H-540.652V98.8888H-549.448L-573.531 85.8218L-587.895 106.181V90.067L-610.561 87.0201V85.5031H-616.585V87.0201H-619.824V72.7421H-634.631L-638.795 75.483H-647.135V79.7281H-653.614V104.651H-659.638V97.9581H-662.423V100.087H-665.675V98.57H-674.471V100.393H-676.774V94.9241L-685.101 87.938V86.4209H-688.341V88.5499L-697.605 95.8419V100.406H-698.984V132.901H-707.792V112.249H-717.98V106.474H-720.764V105.569H-725.852V111.65H-732.344V113.46H-734.204V121.67H-742.531V126.527H-748.087V89.455L-768.918 87.0201L-787.433 86.4209V65.4501L-820.299 60.5803L-820.767 57.8522L-834.195 55.1113L-851.317 56.0164V58.7573L-886.272 60.2743V71.0593L-889.752 68.7774L-892.536 70.6004V77.8924H-895.308V80.6333L-901.319 87.6193H-908.735V83.3614H-922.162V80.0214L-924.466 78.4916V71.8115H-932.793V70.2945H-948.068V68.1655H-955.003V70.2945L-956.395 71.5055L-955.94 80.9137L-971.367 79.5497V67.9743H-973.455V57.2913H-981.415V49.5786H-985.174V30.8642H-987.667V50.4709H-990.173V53.1481H-999.791V51.6566H-1014.42V30.8769H-1017.34V52.2557H-1020.68V59.6879H-1027.37V57.5972H-1029.02V74.6799H-1032.16L-1035.72 77.204H-1056.18V71.2634H-1059.12V77.7904H-1082.13V93.2413H-1106.37V95.9056H-1110.13V102.445H-1118.92V53.7345L-1133.53 51.0701V-3.28838H-1134.79V-7.15105L-1148.58 -8.62989L-1163.63 -6.84511L-1179.09 -8.04344L-1191.62 -6.25874V52.8421L-1204.18 54.6268V92.3489H-1222.56V84.037L-1237.18 82.8515V40.6803H-1240.94V37.1108H-1243.86V34.7396H-1246.79V30.8769H-1250.55V27.3201H-1255C-1254.86 27.7918 -1254.71 28.2635 -1254.58 28.7352C-1245.79 62.1356 -1239.4 96.3901 -1239.16 130.453C-1239.02 150.468 -1240.45 170.457 -1240.57 190.459C-1240.65 201.996 -1242.46 213.189 -1245.77 224H-895.143V211.634L-90.4354 212.947L-92.8273 217.498L829.019 215.994V220.609H1371V220.494Z" fill="#D7EEF9"/>
</g>
<defs>
<clipPath id="clip0_564_58183">
<rect width="589.846" height="210.185" fill="white" transform="translate(-100 0.307617)"/>
</clipPath>
</defs>
</svg>
