<svg width="48" height="48" viewBox="0 0 48 48" fill="none" xmlns="http://www.w3.org/2000/svg">
<g clip-path="url(#clip0_606_12289)">
<path d="M33 20H15C14.448 20 14 19.552 14 19V1C14 0.448 14.448 0 15 0H33C33.552 0 34 0.448 34 1V19C34 19.552 33.552 20 33 20ZM16 18H32V2H16V18Z" fill="#88D2F2"/>
<path d="M27 8H21C20.448 8 20 7.552 20 7V1C20 0.448 20.448 0 21 0H27C27.552 0 28 0.448 28 1V7C28 7.552 27.552 8 27 8ZM22 6H26V2H22V6Z" fill="#88D2F2"/>
<path d="M24 38H5C4.448 38 4 37.552 4 37V19C4 18.448 4.448 18 5 18H24C24.552 18 25 18.448 25 19V37C25 37.552 24.552 38 24 38ZM6 36H23V20H6V36Z" fill="#88D2F2"/>
<path d="M17 26H11C10.448 26 10 25.552 10 25V19C10 18.448 10.448 18 11 18H17C17.552 18 18 18.448 18 19V25C18 25.552 17.552 26 17 26ZM12 24H16V20H12V24Z" fill="#88D2F2"/>
<path d="M43 38H24C23.448 38 23 37.552 23 37V19C23 18.448 23.448 18 24 18H43C43.552 18 44 18.448 44 19V37C44 37.552 43.552 38 43 38ZM25 36H42V20H25V36Z" fill="#88D2F2"/>
<path d="M37 26H31C30.448 26 30 25.552 30 25V19C30 18.448 30.448 18 31 18H37C37.552 18 38 18.448 38 19V25C38 25.552 37.552 26 37 26ZM32 24H36V20H32V24Z" fill="#88D2F2"/>
<path d="M47 48H39C38.448 48 38 47.552 38 47V44H30V47C30 47.552 29.552 48 29 48H19C18.448 48 18 47.552 18 47V44H10V47C10 47.552 9.552 48 9 48H1C0.448 48 0 47.552 0 47V37C0 36.448 0.448 36 1 36H47C47.552 36 48 36.448 48 37V47C48 47.552 47.552 48 47 48ZM40 46H46V38H2V46H8V43C8 42.448 8.448 42 9 42H19C19.552 42 20 42.448 20 43V46H28V43C28 42.448 28.448 42 29 42H39C39.552 42 40 42.448 40 43V46Z" fill="#88D2F2"/>
</g>
<defs>
<clipPath id="clip0_606_12289">
<rect width="48" height="48" fill="white"/>
</clipPath>
</defs>
</svg>
